<svg xmlns="http://www.w3.org/2000/svg" width="143.213" height="23.675" viewBox="0 0 143.213 23.675">
  <g id="Group_670" data-name="Group 670" transform="translate(-8.342 -8.575)">
    <path id="Path_532" data-name="Path 532" d="M48.194,38.336c0,6.169-5.252,11.171-11.837,11.171-6.5,0-11.837-5-11.837-11.171s5.335-11.17,11.837-11.17c6.585,0,11.837,5,11.837,11.17" transform="translate(-16.178 -17.924)" fill="#fff" fill-rule="evenodd"/>
    <path id="Path_533" data-name="Path 533" d="M38.249,47.1H36.415v6.169c0,1.417-.583,1.75-1.417,1.75a2.573,2.573,0,0,1-.917-.167l-.25,1.5a7.3,7.3,0,0,0,1.334.167c1.917,0,3.084-.75,3.084-3.251Zm8.92,4.085H44V52.6h1.334v2.334c-.166,0-.5.083-1,.083-1.584,0-2.834-1.084-2.834-3.168a3.021,3.021,0,0,1,3.167-3.334,4.965,4.965,0,0,1,1.834.417l.333-1.5a6.186,6.186,0,0,0-2.167-.417c-2.834,0-5.085,1.751-5.085,4.835A4.683,4.683,0,0,0,41,55.349a4.492,4.492,0,0,0,3.334,1.167,7.859,7.859,0,0,0,2.835-.5Zm1.667,5.168h1.834V47.513H48.836Z" transform="translate(-22.322 -31.019)" fill="#414142" fill-rule="evenodd"/>
    <path id="Path_534" data-name="Path 534" d="M79.613,41.482A1.084,1.084,0,1,1,78.53,40.4a1.1,1.1,0,0,1,1.084,1.084" transform="translate(-51.098 -26.654)" fill="#6e6f71" fill-rule="evenodd"/>
    <rect id="Rectangle_579" data-name="Rectangle 579" width="13.921" height="2.834" transform="translate(37.434 28.665)" fill="#fff"/>
    <path id="Path_535" data-name="Path 535" d="M199.4,87.086V86l-.917-1.5h.584l.667,1,.584-1h.583l-.917,1.5v1.084Zm-2.251,0V84.919h-.75V84.5h2v.417h-.75v2.167ZM195.565,84.5h.583v2.584h-.583Zm-2.417,1.751.5-.083a.636.636,0,0,0,.166.417c.083.083.167.083.334.083a.625.625,0,0,0,.417-.083.306.306,0,0,0,.083-.25v-.167c-.083,0-.166-.083-.25-.083,0-.084-.167-.084-.417-.167a.742.742,0,0,1-.667-1.084c.083-.167.167-.25.334-.25.083-.083.333-.083.5-.083a1.286,1.286,0,0,1,.666.167.755.755,0,0,1,.25.583h-.5c0-.083-.083-.167-.083-.25-.084-.083-.167-.083-.333-.083s-.25,0-.334.083c-.083,0-.083.083-.083.167v.166a3.3,3.3,0,0,1,.5.166,1.2,1.2,0,0,1,.583.167l.25.25a.627.627,0,0,1,.083.417.753.753,0,0,1-.083.416,1.142,1.142,0,0,1-.334.25,1.234,1.234,0,0,1-.583.083,1.67,1.67,0,0,1-.751-.166.948.948,0,0,1-.25-.667m-1.917-.667h.834l.083-.084a.305.305,0,0,0,.083-.25c0-.083,0-.167-.083-.167,0-.083-.083-.083-.166-.083-.083-.083-.167-.083-.417-.083h-.333Zm-.5,1.5V84.5h1c.333,0,.5.083.667.083l.25.25a.623.623,0,0,1,.084.417c0,.167,0,.333-.167.417a.5.5,0,0,1-.5.25,1.158,1.158,0,0,1,.334.25.89.89,0,0,1,.25.417l.334.5h-.667l-.333-.583a1.562,1.562,0,0,0-.25-.333L191.564,86h-.333v1.084Zm-2.417,0V84.5h1.917v.417h-1.417V85.5h1.251v.417h-1.251v.75h1.417v.417Zm-1.667,0-.917-2.584h.5l.667,1.918.583-1.918h.584l-.917,2.584ZM184.978,84.5h.5v2.584h-.5Zm-2.584,2.584V84.5h.5l1.084,1.751V84.5h.417v2.584h-.5l-1-1.667v1.667ZM179.81,84.5h.583v1.834c0,.083.083.166.167.25s.167.083.333.083a.5.5,0,0,0,.333-.083c0-.083.083-.166.083-.25V84.5h.584v1.334a4.483,4.483,0,0,1-.083.666.434.434,0,0,1-.167.333c-.083.084-.167.167-.25.167a1.059,1.059,0,0,1-.5.083A1.237,1.237,0,0,1,180.31,87c-.083,0-.166-.083-.25-.167a.632.632,0,0,1-.167-.333,4.691,4.691,0,0,1-.083-.583Zm-3,2.584V84.752h1.667V85h-1.334v.75h1.251V86h-1.251v.833h1.334v.25Zm-1.834-.25h.583a.292.292,0,0,0,.167-.083h.167l.166-.167V86.42a.308.308,0,0,0-.083-.25c0-.083-.083-.083-.167-.167h-.834Zm0-1.084h.5a.307.307,0,0,0,.25-.083c.083,0,.167,0,.167-.083.083-.084.083-.084.083-.167a.305.305,0,0,0-.083-.25.29.29,0,0,0-.167-.084.864.864,0,0,0-.333-.083h-.417Zm-.334,1.334V84.752h.834a.9.9,0,0,1,.5.083c.083.084.167.084.167.25.083.084.167.167.167.25s-.083.25-.083.333c-.083.083-.167.083-.25.167.083.083.25.083.333.25.083.083.083.166.083.333a.306.306,0,0,1-.083.25c0,.083-.083.167-.167.25-.084,0-.167.083-.25.083a.5.5,0,0,1-.334.083Zm-1.167-1h.834v.25h-.834Zm-2.167-.167a.821.821,0,0,0,.25.667.757.757,0,0,0,.584.25.594.594,0,0,0,.5-.25.946.946,0,0,0,.25-.667,1.057,1.057,0,0,0-.083-.5,1.163,1.163,0,0,0-.25-.334.907.907,0,0,0-.417-.083.757.757,0,0,0-.584.25c-.166.083-.25.333-.25.667m-.334,0a1.273,1.273,0,0,1,.334-.834,1.071,1.071,0,0,1,.833-.333,1.628,1.628,0,0,1,.583.083,1.059,1.059,0,0,1,.333.5,1.1,1.1,0,0,1,0,1.167.686.686,0,0,1-.417.417.614.614,0,0,1-.5.166.705.705,0,0,1-.584-.166,1.009,1.009,0,0,1-.417-.417,1.2,1.2,0,0,1-.167-.583m-1.167,1.167V85h-.75v-.25h1.834V85h-.834v2.084Zm-1.834-1h.917v.25h-.917Zm-1.834.75h.5c.166,0,.25-.083.333-.083a.291.291,0,0,0,.167-.083.433.433,0,0,0,.166-.333.626.626,0,0,0,.083-.417,1.235,1.235,0,0,0-.083-.583,1.156,1.156,0,0,0-.333-.25c-.084,0-.167-.083-.333-.083h-.5Zm-.333.25V84.752h.834a.753.753,0,0,1,.417.083c.083,0,.167.084.333.166a1.15,1.15,0,0,1,.25.334,1.235,1.235,0,0,1,.083.583.625.625,0,0,1-.083.417.433.433,0,0,1-.167.333c0,.083-.084.167-.167.25-.083,0-.166.083-.333.083-.084.083-.167.083-.333.083Zm-2.084,0V84.752h1.584V85h-1.334v.75h1.25V86h-1.25v.833h1.417v.25Zm-2.751,0V84.752h.5l.5,1.667c.083.083.083.25.167.333a3.616,3.616,0,0,0,.083-.416l.583-1.584h.417v2.334h-.333V85.169l-.667,1.917h-.25l-.667-2v2Zm-2.084,0V84.752h1.667V85H159.22v.75h1.251V86H159.22v.833h1.334v.25Zm-2.167,0V84.752h1.667V85h-1.334v.75H158.3V86h-1.251v.833h1.417v.25Zm-2-.25h.5c.166,0,.25-.083.333-.083s.167-.083.25-.083c0-.083.083-.167.167-.333v-.417a1.231,1.231,0,0,0-.084-.583l-.25-.25a3.627,3.627,0,0,0-.417-.083h-.5Zm-.334.25V84.752h.834a.625.625,0,0,1,.417.083.637.637,0,0,1,.333.166,1.157,1.157,0,0,1,.25.334,1.239,1.239,0,0,1,.083.583.628.628,0,0,1-.083.417c0,.166-.083.25-.083.333l-.25.25c-.083,0-.166.083-.25.083a.625.625,0,0,1-.417.083Z" transform="translate(-101.862 -55.754)" fill="#fff" fill-rule="evenodd"/>
    <path id="Path_536" data-name="Path 536" d="M155.132,27.166h5l6.419,9.5v-9.5h5.085V44.422h-5.085l-6.419-9.5v9.5h-5Zm-9.253,0h5.335V44.422h-5.335Zm-9.5,10.67-1.834-6.169-1.917,6.169Zm1.167,3.751h-6.085l-.833,2.834h-5.5l6.5-17.256h5.918l6.419,17.256h-5.585ZM118.62,27.166h5.335V36.5a15.16,15.16,0,0,1-.5,4.5,5.357,5.357,0,0,1-2.084,2.668,7.61,7.61,0,0,1-4.085,1.084A9.158,9.158,0,0,1,113.2,44a5.227,5.227,0,0,1-2.167-2.084,7.86,7.86,0,0,1-1-3.334l5.169-.667a4.645,4.645,0,0,0,.167,1.667,1.75,1.75,0,0,0,.667.917,1.794,1.794,0,0,0,.834.167A1.431,1.431,0,0,0,118.2,40a4.638,4.638,0,0,0,.417-2.25Z" transform="translate(-72.6 -17.924)" fill="#fff" fill-rule="evenodd"/>
    <path id="Path_537" data-name="Path 537" d="M359.947,56.237V48.567h5.5v.917h-4.5v2.334h4.168v.917h-4.168v2.584h4.668v.917Zm-8.253,0V48.567h1l4,6v-6h1v7.669h-1.084l-3.918-6v6Zm-3.335-7.669h1v7.669h-1Zm-6.669,7.669V48.567h1v6.752h3.751v.917Zm-8.169,0V48.567h1l4,6v-6h1v7.669H338.44l-3.918-6v6Zm-8.086-3.751a2.979,2.979,0,0,0,.75,2.167,2.25,2.25,0,0,0,1.834.834,2.414,2.414,0,0,0,1.917-.834,3.056,3.056,0,0,0,.751-2.251,4.439,4.439,0,0,0-.334-1.584,2.37,2.37,0,0,0-.917-1.083,2.807,2.807,0,0,0-1.417-.417,2.734,2.734,0,0,0-1.834.75,3.359,3.359,0,0,0-.75,2.417m-1,0a4,4,0,0,1,1-2.918,3.343,3.343,0,0,1,2.584-1.084,3.55,3.55,0,0,1,3.251,1.917,5.04,5.04,0,0,1,.417,2,4.282,4.282,0,0,1-.5,2.084,3.44,3.44,0,0,1-1.251,1.417,4.951,4.951,0,0,1-1.917.417,3.877,3.877,0,0,1-1.917-.5,3.439,3.439,0,0,1-1.25-1.417,4.938,4.938,0,0,1-.417-1.917" transform="translate(-214.061 -31.99)" fill="#fff" fill-rule="evenodd"/>
    <rect id="Rectangle_580" data-name="Rectangle 580" width="0.5" height="23.675" transform="translate(104.456 8.575)" fill="#fff"/>
  </g>
</svg>
