<svg id="Group_8268" data-name="Group 8268" xmlns="http://www.w3.org/2000/svg" xmlns:xlink="http://www.w3.org/1999/xlink" width="43.572" height="49.586" viewBox="0 0 43.572 49.586">
  <defs>
    <clipPath id="clip-path">
      <rect id="Rectangle_5349" data-name="Rectangle 5349" width="43.572" height="49.586" fill="#bfbfbf"/>
    </clipPath>
  </defs>
  <g id="Group_8268-2" data-name="Group 8268" clip-path="url(#clip-path)">
    <path id="Path_23729" data-name="Path 23729" d="M38.555,0c.295.074.592.14.884.223a5.625,5.625,0,1,1-7.108,6.29A5.6,5.6,0,0,1,36.976.083,1.21,1.21,0,0,0,37.2,0Z" transform="translate(-16.067)" fill="#bfbfbf"/>
    <path id="Path_23730" data-name="Path 23730" d="M43.493,37.8H21.567c-.011-.172-.028-.328-.028-.483,0-2.182.053-4.365-.015-6.544A5.155,5.155,0,0,1,26.81,25.49c3.877.062,7.755.005,11.634.019a5.028,5.028,0,0,1,4.992,4.107,5.2,5.2,0,0,1,.077.964q.01,3.441,0,6.883c0,.1-.013.191-.024.333" transform="translate(-10.719 -12.695)" fill="#bfbfbf"/>
    <path id="Path_23731" data-name="Path 23731" d="M.086,56.078H9.237a33.469,33.469,0,0,0,1.292,9.1c-1.109.529-2.22,1-3.272,1.578S5.2,68.023,4.126,68.691A21.623,21.623,0,0,1,.086,56.078" transform="translate(-0.043 -27.929)" fill="#bfbfbf"/>
    <path id="Path_23732" data-name="Path 23732" d="M76.448,56.1a21.625,21.625,0,0,1-4.036,12.6c-1.047-.656-2.044-1.343-3.1-1.923s-2.17-1.053-3.3-1.593A33.5,33.5,0,0,0,67.3,56.1Z" transform="translate(-32.876 -27.942)" fill="#bfbfbf"/>
    <path id="Path_23733" data-name="Path 23733" d="M7.909,39.1H.048a3.456,3.456,0,0,1-.04-.374c0-1.986-.019-3.973,0-5.959a4.41,4.41,0,0,1,2.556-4.22,4.015,4.015,0,0,1,1.57-.417c1.541-.055,3.085-.02,4.649-.02a9,9,0,0,0-.517,1.4,15.137,15.137,0,0,0-.343,2.576c-.048,2.147-.016,4.3-.016,6.443V39.1" transform="translate(0 -13.997)" fill="#bfbfbf"/>
    <path id="Path_23734" data-name="Path 23734" d="M78.072,39.063H70.236c0-.211,0-.4,0-.589q-.007-3.464-.016-6.928a7.329,7.329,0,0,0-.743-3.127c-.047-.1-.084-.2-.15-.363.161-.007.281-.019.4-.017,1.516.024,3.037-.01,4.548.09A4.258,4.258,0,0,1,78.053,32c.08,2.336.019,4.675.019,7.067" transform="translate(-34.527 -13.964)" fill="#bfbfbf"/>
    <path id="Path_23735" data-name="Path 23735" d="M14.565,5.2a5.072,5.072,0,0,1,4.722,7.017.814.814,0,0,1-.609.536A7.488,7.488,0,0,0,14.851,15a.748.748,0,0,1-.724.247,5.1,5.1,0,0,1-4.361-3.8,5.019,5.019,0,0,1,2.039-5.359,4.615,4.615,0,0,1,2.759-.89" transform="translate(-4.787 -2.588)" fill="#bfbfbf"/>
    <path id="Path_23736" data-name="Path 23736" d="M62.24,5.2a5.07,5.07,0,0,1,4.866,3.787,4.93,4.93,0,0,1-2.425,5.6,9.1,9.1,0,0,1-2.006.643.728.728,0,0,1-.581-.2,8.314,8.314,0,0,0-3.957-2.326.882.882,0,0,1-.5-.436A5.034,5.034,0,0,1,62.24,5.2" transform="translate(-28.478 -2.59)" fill="#bfbfbf"/>
    <path id="Path_23737" data-name="Path 23737" d="M32.341,56.1v7.1l-7.079,1.025A29.428,29.428,0,0,1,24.123,56.1Z" transform="translate(-12.014 -27.942)" fill="#bfbfbf"/>
    <path id="Path_23738" data-name="Path 23738" d="M46.39,63.193v-7.1h8.223a29.91,29.91,0,0,1-1.127,8.134l-7.1-1.033" transform="translate(-23.104 -27.936)" fill="#bfbfbf"/>
    <path id="Path_23739" data-name="Path 23739" d="M11.9,82.805a22.48,22.48,0,0,1,5.488-3.025,25.287,25.287,0,0,0,6.924,9.532A21.468,21.468,0,0,1,11.9,82.805" transform="translate(-5.927 -39.733)" fill="#bfbfbf"/>
    <path id="Path_23740" data-name="Path 23740" d="M62.674,82.806a21.515,21.515,0,0,1-12.416,6.516,25.284,25.284,0,0,0,6.923-9.537,22.251,22.251,0,0,1,5.493,3.022" transform="translate(-25.03 -39.735)" fill="#bfbfbf"/>
    <path id="Path_23741" data-name="Path 23741" d="M52.472,77.241a21.577,21.577,0,0,1-6.039,8.132V76.4a22.365,22.365,0,0,1,6.039.837" transform="translate(-23.125 -38.039)" fill="#bfbfbf"/>
    <path id="Path_23742" data-name="Path 23742" d="M34.443,76.092v9.15a21.7,21.7,0,0,1-6.111-8.288l6.111-.862" transform="translate(-14.11 -37.896)" fill="#bfbfbf"/>
  </g>
</svg>
