<svg id="Group_8267" data-name="Group 8267" xmlns="http://www.w3.org/2000/svg" xmlns:xlink="http://www.w3.org/1999/xlink" width="45.398" height="49.586" viewBox="0 0 45.398 49.586">
  <defs>
    <clipPath id="clip-path">
      <rect id="Rectangle_5348" data-name="Rectangle 5348" width="45.398" height="49.587" fill="#bfbfbf"/>
    </clipPath>
  </defs>
  <g id="Group_8267-2" data-name="Group 8267" clip-path="url(#clip-path)">
    <path id="Path_23727" data-name="Path 23727" d="M50.2,0c.9.164,1.82.266,2.7.5a8.22,8.22,0,0,1,5.353,4.137,8,8,0,0,1,.72,5.36q-.23,1.286-.412,2.58a.681.681,0,0,0,.12.513,2.407,2.407,0,0,1,.709,1.94,10.424,10.424,0,0,1-.3,1.858,1.862,1.862,0,0,1-1.1,1.331,1.625,1.625,0,0,0-.963,1.236A8.824,8.824,0,0,1,49.8,26.029a7.182,7.182,0,0,1-5.442-1.559,8.677,8.677,0,0,1-3.493-5.232,1.246,1.246,0,0,0-.768-.934,2.22,2.22,0,0,1-1.338-1.773,4.933,4.933,0,0,1-.092-2.392,1.439,1.439,0,0,1,.348-.727c.509-.368.375-.814.3-1.29-.167-1.084-.362-2.166-.459-3.257a7.5,7.5,0,0,1,3.137-6.9A10,10,0,0,1,47.252.084c.175-.018.347-.055.521-.084Z" transform="translate(-26.322)" fill="#bfbfbf"/>
    <path id="Path_23728" data-name="Path 23728" d="M24.723,103.886c.365-.733.756-1.454,1.089-2.2,1.07-2.4,2.113-4.812,3.183-7.212a2.979,2.979,0,0,1,.62-.961,1.516,1.516,0,0,1,1.754-.29c3.774,1.748,7.557,3.478,11.3,5.3a7.814,7.814,0,0,1,2.118,1.722,2.323,2.323,0,0,1,.584,1.436c.049,3.439.026,6.878.026,10.357H.019v-.521c0-3.052.038-6.105-.019-9.157a3.433,3.433,0,0,1,1.426-2.962,10.186,10.186,0,0,1,1.831-1.167Q8.571,95.72,13.918,93.28a1.723,1.723,0,0,1,2.479,1.1c.853,1.95,1.678,3.912,2.545,5.855.55,1.232,1.154,2.441,1.735,3.66l.12-.023c.017-.165.042-.33.05-.5.084-1.839.172-3.678.239-5.517a1.562,1.562,0,0,0-.16-.688c-.629-1.344-1.28-2.677-1.915-4.017-.511-1.079-.131-1.693,1.059-1.7q2.64-.013,5.281,0c1.193.006,1.573.618,1.063,1.7-.635,1.341-1.288,2.673-1.912,4.018a1.784,1.784,0,0,0-.158.784c.062,1.759.147,3.517.226,5.275.009.207.028.413.042.62l.113.039" transform="translate(0 -62.448)" fill="#bfbfbf"/>
  </g>
</svg>
