<svg id="Group_8266" data-name="Group 8266" xmlns="http://www.w3.org/2000/svg" xmlns:xlink="http://www.w3.org/1999/xlink" width="51.478" height="44.587" viewBox="0 0 51.478 44.587">
  <defs>
    <clipPath id="clip-path">
      <rect id="Rectangle_5347" data-name="Rectangle 5347" width="51.478" height="44.587" fill="#bfbfbf"/>
    </clipPath>
  </defs>
  <g id="Group_8266-2" data-name="Group 8266" clip-path="url(#clip-path)">
    <path id="Path_23724" data-name="Path 23724" d="M26.224,97.768c0-5.04-.029-10.081,0-15.121A4.959,4.959,0,0,1,29.9,78.085a14.281,14.281,0,0,1,10.849.991,21.727,21.727,0,0,0,3.276,1.4,10.283,10.283,0,0,0,2.685.446c1.533.07,3.072.013,4.609.021a1.573,1.573,0,0,1,1.746,1.813,4,4,0,0,1-3.2,4.188,5.48,5.48,0,0,1-1.082.073c-2.952.006-5.9-.014-8.856.022a2.443,2.443,0,0,0-1.28.418,1.322,1.322,0,0,0-.452,1.581,1.457,1.457,0,0,0,1.326,1.069c.411.039.828.02,1.242.021,2.642,0,5.283-.021,7.924.009a4.511,4.511,0,0,0,3.427-1.413c2.135-2.162,4.274-4.32,6.449-6.442a7.448,7.448,0,0,1,10.231-.113,1.59,1.59,0,0,1,.063,2.56q-5.472,5.477-10.95,10.95a6.817,6.817,0,0,1-3.885,2,1.227,1.227,0,0,0-.237.087Z" transform="translate(-17.996 -53.181)" fill="#bfbfbf"/>
    <path id="Path_23725" data-name="Path 23725" d="M1.183,108.779A1.891,1.891,0,0,1,0,106.771c.035-3.793.014-7.587.015-11.38,0-1.331.558-1.9,1.876-1.9,1,0,2,0,3,.007a1.32,1.32,0,0,1,.228.059v15.221Z" transform="translate(0 -64.192)" fill="#bfbfbf"/>
    <path id="Path_23726" data-name="Path 23726" d="M75.563,0a13,13,0,1,0,13,13,13,13,0,0,0-13-13m5.144,10.593a.369.369,0,0,1-.383.383H78.311a4.479,4.479,0,0,1-1.545,2.8A6.074,6.074,0,0,1,73.46,15.1q2,2.132,5.5,6.421a.328.328,0,0,1,.048.407.348.348,0,0,1-.348.216H76.323a.354.354,0,0,1-.3-.144q-3.665-4.4-5.966-6.84a.358.358,0,0,1-.107-.264V13.371a.389.389,0,0,1,.383-.383h1.342a5.406,5.406,0,0,0,2.546-.515,2.341,2.341,0,0,0,1.228-1.5H70.333a.369.369,0,0,1-.383-.383V9.37a.369.369,0,0,1,.383-.383H75.28Q74.6,7.633,72.07,7.633H70.333a.389.389,0,0,1-.383-.383V5.656a.369.369,0,0,1,.383-.383H80.3a.368.368,0,0,1,.383.383V6.879a.368.368,0,0,1-.383.383H77.509a4.148,4.148,0,0,1,.767,1.725h2.048a.369.369,0,0,1,.383.383Z" transform="translate(-42.953 0.001)" fill="#bfbfbf"/>
  </g>
</svg>
