<svg id="Group_8272" data-name="Group 8272" xmlns="http://www.w3.org/2000/svg" xmlns:xlink="http://www.w3.org/1999/xlink" width="49.576" height="49.586" viewBox="0 0 49.576 49.586">
  <defs>
    <clipPath id="clip-path">
      <rect id="Rectangle_5350" data-name="Rectangle 5350" width="49.576" height="49.586" fill="#bfbfbf"/>
    </clipPath>
  </defs>
  <g id="Group_8271" data-name="Group 8271" clip-path="url(#clip-path)">
    <path id="Path_23743" data-name="Path 23743" d="M98.329,25.666H91.261v-.644q0-2.009,0-4.017a4.381,4.381,0,0,0-1.734-3.46,4.582,4.582,0,0,0,.767-4.109,4.457,4.457,0,0,0-1.82-2.486,4.554,4.554,0,0,0-6.137,6.57,1.921,1.921,0,0,1-.174.2A4.3,4.3,0,0,0,80.6,21.164c.023,1.481.005,2.962.005,4.472H75.017V0h.5q9.1,0,18.2,0a4.338,4.338,0,0,1,4.54,3.6,1.154,1.154,0,0,0,.074.177Z" transform="translate(-48.753 -0.001)" fill="#bfbfbf"/>
    <path id="Path_23744" data-name="Path 23744" d="M49.576,86.351a10.076,10.076,0,0,1-.476,1.36,4.218,4.218,0,0,1-3.754,2.408c-.66.034-1.322.006-2.063.006v-.468c0-1.065,0-2.131,0-3.2a1.456,1.456,0,1,0-2.9.02c-.005,1.193,0,2.386,0,3.648h-.534q-17.622,0-35.245,0A4.365,4.365,0,0,1,0,85.545c0-1.29,0-2.58,0-3.939H49.576Z" transform="translate(0 -53.035)" fill="#bfbfbf"/>
    <path id="Path_23745" data-name="Path 23745" d="M30.1,123.815c-.064-.041-.125-.088-.192-.123a1.45,1.45,0,0,1,.639-2.779c1.194-.008,2.388-.018,3.581.007a1.2,1.2,0,0,0,.942-.382,8.555,8.555,0,0,0,1.795-2.9c.452-1.1.832-2.232,1.259-3.392.09,0,.232-.016.375-.016,3.452,0,6.9.007,10.357-.011.388,0,.494.148.618.479.523,1.4,1.083,2.788,1.649,4.172a5.517,5.517,0,0,0,.47.788,2.239,2.239,0,0,0,2.367,1.276,19.663,19.663,0,0,1,2.61-.022,1.51,1.51,0,0,1,1.673,1.151,1.477,1.477,0,0,1-.975,1.683c-.025.012-.038.047-.056.071Z" transform="translate(-18.867 -74.229)" fill="#bfbfbf"/>
    <path id="Path_23746" data-name="Path 23746" d="M23.319,0V25.635h-5.6c0-1.415,0-2.815,0-4.214a7.661,7.661,0,0,0-.048-1.062,4.442,4.442,0,0,0-1.688-2.82,4.568,4.568,0,0,0,.842-3.845,4.423,4.423,0,0,0-1.674-2.586,4.537,4.537,0,0,0-5.789.225A4.584,4.584,0,0,0,8.8,17.543c-.1.092-.2.188-.3.285a4.248,4.248,0,0,0-1.427,3.216c.011,1.516,0,3.032,0,4.585H0v-.507Q0,14.856,0,4.593A4.359,4.359,0,0,1,4.588,0q9.1,0,18.2,0Z" transform="translate(0 0)" fill="#bfbfbf"/>
    <path id="Path_23747" data-name="Path 23747" d="M33.277,61.423h-4.8V59.148c0-.742.02-1.485-.006-2.226a1.508,1.508,0,0,1,.7-1.351,3.134,3.134,0,0,1,3.423-.025,1.554,1.554,0,0,1,.734,1.382c-.023,1.451-.01,2.9-.012,4.355a.847.847,0,0,1-.033.14" transform="translate(-18.5 -35.777)" fill="#bfbfbf"/>
    <path id="Path_23748" data-name="Path 23748" d="M104.123,61.416H99.288V57.488c0-1.368.262-1.834,1.252-2.225a2.991,2.991,0,0,1,3.192.577,1.337,1.337,0,0,1,.374.757c.034,1.593.017,3.187.017,4.818" transform="translate(-64.527 -35.773)" fill="#bfbfbf"/>
    <path id="Path_23749" data-name="Path 23749" d="M32.35,37.35a1.645,1.645,0,1,1-1.644,1.62,1.649,1.649,0,0,1,1.644-1.62" transform="translate(-19.955 -24.274)" fill="#bfbfbf"/>
    <path id="Path_23750" data-name="Path 23750" d="M103.151,40.639a1.645,1.645,0,1,1,1.642-1.623,1.653,1.653,0,0,1-1.642,1.623" transform="translate(-65.967 -24.273)" fill="#bfbfbf"/>
  </g>
</svg>
