<svg xmlns="http://www.w3.org/2000/svg" width="47.719" height="47.719" viewBox="0 0 47.719 47.719">
  <g id="Group_7903" data-name="Group 7903" transform="translate(-662 -204)">
    <path id="Path_8115" data-name="Path 8115" d="M662,533.693a1.747,1.747,0,0,1,1.877-1.037c1.065.049,2.134.012,3.242.012v-2.34c.746-.05,1.453-.1,2.161-.144a37.678,37.678,0,0,0,7.754-1.469,17.444,17.444,0,0,1,4.444-.7,4.18,4.18,0,0,1,4.295,3.383c.012.052.036.1.09.253.051-.2.077-.3.1-.393a4.208,4.208,0,0,1,4.135-3.244,17.2,17.2,0,0,1,4.674.732,37.7,37.7,0,0,0,9.337,1.546c.139,0,.277.027.456.046v2.335h.482c.931,0,1.865.038,2.794-.011a1.736,1.736,0,0,1,1.877,1.036v.746a2.15,2.15,0,0,1-1.025,1.025H663.025A2.149,2.149,0,0,1,662,534.439Z" transform="translate(0 -283.745)" fill="#bfbfbf"/>
    <path id="Path_8116" data-name="Path 8116" d="M800.666,204a1.775,1.775,0,0,1,1.04,1.878,12.34,12.34,0,0,1-.485,4,5.021,5.021,0,0,1-4.8,3.545c-5.73.031-11.46.013-17.191.014-.075,0-.15-.013-.277-.025,0-.784-.019-1.557,0-2.328a13.9,13.9,0,0,1,.167-2.73,5.405,5.405,0,0,1,4.467-4.267A1.272,1.272,0,0,0,783.8,204Z" transform="translate(-102.411)" fill="#bfbfbf"/>
    <path id="Path_8117" data-name="Path 8117" d="M752.964,435.074c-1.735-.328-3.4-.616-5.048-.962-1.773-.372-3.522-.875-5.306-1.182a7.873,7.873,0,0,0-5.757.877,1.274,1.274,0,0,1-.51.242,23.674,23.674,0,0,0-2.7-1.07,10.455,10.455,0,0,0-4.89.144c-1.941.408-3.853.95-5.791,1.37-1.086.235-2.2.342-3.379.518v-.543c0-1.77,0-3.54,0-5.31a5.532,5.532,0,0,1,3.964-5.368l4.248-1.327c1.513,4.22,4.389,6.656,8.941,6.458,4.121-.18,6.692-2.591,8.019-6.462.9.278,1.819.558,2.733.842.533.166,1.062.341,1.594.51a5.524,5.524,0,0,1,3.9,5.271c.01,1.8,0,3.6,0,5.4C752.99,434.621,752.978,434.757,752.964,435.074Z" transform="translate(-50.429 -191.31)" fill="#bfbfbf"/>
    <path id="Path_8118" data-name="Path 8118" d="M797.283,302.739c-.051,2.077.183,4.129-.538,6.121a9.313,9.313,0,0,1-17.97-1.669,43.165,43.165,0,0,1-.185-4.452Z" transform="translate(-102.102 -86.469)" fill="#bfbfbf"/>
    <path id="Path_8119" data-name="Path 8119" d="M807.594,412.7a12.2,12.2,0,0,0,11.483.033c.305,1.932-2.521,4.617-5.116,4.872C810.88,417.905,807.683,415.468,807.594,412.7Z" transform="translate(-127.501 -182.764)" fill="#bfbfbf"/>
  </g>
</svg>
