<svg xmlns="http://www.w3.org/2000/svg" width="48.283" height="45.283" viewBox="0 0 48.283 45.283">
  <g id="Group_7904" data-name="Group 7904" transform="translate(-702.235 -140.167)">
    <path id="Path_8100" data-name="Path 8100" d="M702.235,426.188V410.155h8.582c0,1.416-.005,2.765,0,4.115a1.417,1.417,0,0,0,1.519,1.541q2.71.013,5.42,0a1.426,1.426,0,0,0,1.544-1.565c.006-1.21,0-2.42,0-3.63v-.437h14.145v.484c0,1.21-.007,2.42,0,3.629a1.412,1.412,0,0,0,1.5,1.516q2.734.015,5.467,0a1.417,1.417,0,0,0,1.519-1.541c.008-1.21,0-2.42,0-3.63,0-.152.014-.3.022-.485h8.558v16.033a.331.331,0,0,0-.04.085,4.4,4.4,0,0,1-4.657,3.7c-5.815-.051-11.63-.016-17.446-.016h-.584v-.612q0-5.871,0-11.742a4.728,4.728,0,0,0-.012-.518,1.409,1.409,0,0,0-2.8,0,4.728,4.728,0,0,0-.012.518q0,5.894,0,11.789v.529a1.241,1.241,0,0,1-.16.032c-6.114,0-12.228.013-18.342-.006a3.88,3.88,0,0,1-3.375-1.75A11.408,11.408,0,0,1,702.235,426.188Z" transform="translate(0 -244.528)" fill="#bfbfbf"/>
    <path id="Path_8101" data-name="Path 8101" d="M750.518,152.424V162.8H702.235V152.424a.329.329,0,0,0,.04-.085,4.358,4.358,0,0,1,4.652-3.7c2.087.058,4.178.012,6.266.012h.509c.056-.056.073-.066.077-.079a1.334,1.334,0,0,0,.047-.181,8.717,8.717,0,0,1,5.856-7.113,16.4,16.4,0,0,1,5.14-1.058,19,19,0,0,1,8.464,1.147,8.641,8.641,0,0,1,5.132,5.072c.26.7.4,1.441.615,2.213h.477c2.2,0,4.4,0,6.6,0a4.043,4.043,0,0,1,3.56,1.76A11.114,11.114,0,0,1,750.518,152.424Zm-14.4-3.794a5.566,5.566,0,0,0-1.027-2.544,7.143,7.143,0,0,0-4.292-2.61,19.793,19.793,0,0,0-6.786-.361,10.307,10.307,0,0,0-4.92,1.587,5.676,5.676,0,0,0-2.466,3.928Z" transform="translate(0 0)" fill="#bfbfbf"/>
    <path id="Path_8102" data-name="Path 8102" d="M823.517,410.393h2.768v2.776h-2.768Z" transform="translate(-109.845 -244.743)" fill="#bfbfbf"/>
    <path id="Path_8103" data-name="Path 8103" d="M1063.574,410.393h2.774v2.771h-2.774Z" transform="translate(-327.264 -244.743)" fill="#bfbfbf"/>
  </g>
</svg>
