<svg xmlns="http://www.w3.org/2000/svg" width="43.438" height="47.719" viewBox="0 0 43.438 47.719">
  <g id="Group_7902" data-name="Group 7902" transform="translate(-665.261 -204)">
    <path id="Path_8104" data-name="Path 8104" d="M831.07,507.828a1.286,1.286,0,0,1-.736-1.321c.016-3.2.007-6.4.007-9.6v-.456a1.168,1.168,0,0,1,.184.07c1,.616,1.993,1.246,3,1.844a.492.492,0,0,1,.306.5q-.025.791,0,1.584a1.426,1.426,0,0,0,1.465,1.525,1.447,1.447,0,0,0,1.485-1.516c.015-.323,0-.648,0-.925,1.736.113,3.431.314,5.126.307s3.366-.22,5.089-.346c0,.285-.011.656,0,1.025a1.413,1.413,0,0,0,1.348,1.449,1.4,1.4,0,0,0,1.567-1.259c.076-.644.031-1.3.059-1.952a.538.538,0,0,1,.154-.39c1.028-.62,2.07-1.217,3.117-1.827v.377c0,3.2-.008,6.4.008,9.6a1.256,1.256,0,0,1-.746,1.313Z" transform="translate(-144.56 -256.11)" fill="#bfbfbf"/>
    <path id="Path_8105" data-name="Path 8105" d="M682.638,204a2.364,2.364,0,0,1-.268.308,23.154,23.154,0,0,0-8.018,13.541c-.3,1.405-.4,2.852-.592,4.281-.024.182-.038.365-.058.556h-8.285a18.747,18.747,0,0,1,1.423-6.113,20.268,20.268,0,0,1,14.179-12.229c.475-.124.955-.23,1.432-.344Z" transform="translate(-0.137)" fill="#bfbfbf"/>
    <path id="Path_8106" data-name="Path 8106" d="M858.273,205.3a19.084,19.084,0,0,1,11.139,5.475,20.405,20.405,0,0,1,5.688,13.051h-8c-.126-.8-.24-1.609-.383-2.413a30.237,30.237,0,0,0-4.4-11.666,18.724,18.724,0,0,0-3.815-4.245C858.428,205.442,858.351,205.372,858.273,205.3Z" transform="translate(-169.027 -1.142)" fill="#bfbfbf"/>
    <path id="Path_8107" data-name="Path 8107" d="M665.261,378.753h8.316a25.34,25.34,0,0,0,8.939,18.578c-2,.262-7.606-2.376-10.513-5.016A20.2,20.2,0,0,1,665.261,378.753Z" transform="translate(0 -153.037)" fill="#bfbfbf"/>
    <path id="Path_8108" data-name="Path 8108" d="M841.754,222.9a15.848,15.848,0,0,1,3.722,4.046,26.788,26.788,0,0,1,3.706,9.671c.167.85.295,1.708.449,2.611h-7.877Z" transform="translate(-154.561 -16.55)" fill="#bfbfbf"/>
    <path id="Path_8109" data-name="Path 8109" d="M763.833,240.865h-7.588a23.746,23.746,0,0,1,2.058-8.932,19.585,19.585,0,0,1,5.529-7.179Z" transform="translate(-79.679 -18.174)" fill="#bfbfbf"/>
    <path id="Path_8110" data-name="Path 8110" d="M834.228,462.726h21.945c-.249.389-.435.741-.678,1.048a8.07,8.07,0,0,1-4,2.607,19.235,19.235,0,0,1-13.569-.4,7.12,7.12,0,0,1-3.007-2.211C834.685,463.471,834.5,463.135,834.228,462.726Z" transform="translate(-147.97 -226.575)" fill="#bfbfbf"/>
    <path id="Path_8111" data-name="Path 8111" d="M763.779,386.295a1.588,1.588,0,0,0-1.344,1.837q0,2.444,0,4.887v.49a22,22,0,0,1-6.253-14.624h7.6Z" transform="translate(-79.622 -153.153)" fill="#bfbfbf"/>
    <path id="Path_8112" data-name="Path 8112" d="M845.414,386.2h-3.66v-7.426h8.155l.116,2.2h-1.381c-.59,0-1.18-.013-1.769.01a1.433,1.433,0,0,0-1.433,1.465c-.015,1.086,0,2.172-.006,3.258C845.435,385.875,845.422,386.039,845.414,386.2Z" transform="translate(-154.561 -153.057)" fill="#bfbfbf"/>
    <path id="Path_8113" data-name="Path 8113" d="M937.247,386.242h-1.068c0-.54,0-1.062,0-1.583,0-.713.009-1.427,0-2.14a1.442,1.442,0,0,0-1.459-1.49c-.884-.024-1.768-.009-2.652-.01h-.557l-.1-2.2h7.677C939.253,380.048,938.142,384.544,937.247,386.242Z" transform="translate(-233.07 -153.097)" fill="#bfbfbf"/>
    <path id="Path_8114" data-name="Path 8114" d="M895.293,422.562c0-.624-.013-1.225,0-1.825.012-.414.334-.425.641-.426,1.427,0,2.853,0,4.28,0,1.537,0,1.351-.067,1.358,1.347,0,.292,0,.584,0,.906Z" transform="translate(-201.442 -189.428)" fill="#bfbfbf"/>
  </g>
</svg>
