<svg id="Group_7952" data-name="Group 7952" xmlns="http://www.w3.org/2000/svg" width="32.512" height="46.808" viewBox="0 0 32.512 46.808">
  <path id="Path_8159" data-name="Path 8159" d="M1698.576,927.245c-.28-.111-.57-.2-.837-.337-1.015-.515-1.476-1.3-1.668-2.826a2.4,2.4,0,0,1-1.691-4.064,2.543,2.543,0,0,1-.677-1.7,2.471,2.471,0,0,1,.658-1.649c-1.01-1.58-.884-2.576.55-3.835-.543-.935-1.034-1.935-1.669-2.834-.779-1.1-1.678-2.125-2.526-3.181a16.2,16.2,0,0,1,.008-20.244c.394-.493.755-.6,1.113-.32s.345.688-.03,1.159a14.838,14.838,0,0,0,.341,18.964,24.127,24.127,0,0,1,3.956,5.943.446.446,0,0,0,.5.281q6.833-.007,13.666,0c.281,0,.376-.125.5-.345.7-1.243,1.417-2.48,2.158-3.7a.662.662,0,0,1,.987-.223.685.685,0,0,1,.123,1.008c-.041.064-.092.122-.13.188q-.9,1.535-1.79,3.073a2.018,2.018,0,0,0-.115.284c1.36,1.235,1.508,2.39.578,3.6a13.886,13.886,0,0,1,.534,1.828,2.06,2.06,0,0,1-.63,1.654c1.224,2.115.522,3.814-1.722,4.107-.018.184-.024.379-.058.569a2.99,2.99,0,0,1-2.151,2.481c-.1.032-.193.074-.29.111Zm4.853-4.56h2.56c1.585,0,3.169.006,4.754,0a.957.957,0,0,0,1.018-.949.976.976,0,0,0-.943-1.029,4.409,4.409,0,0,0-.457-.01h-9.553a3.055,3.055,0,0,1-.5-.021.669.669,0,0,1-.069-1.3,2.208,2.208,0,0,1,.543-.045q4.8,0,9.6,0a3.679,3.679,0,0,0,.593-.028.982.982,0,0,0-.022-1.929,3.871,3.871,0,0,0-.547-.021q-3.816,0-7.633,0c-2.209,0-4.419,0-6.628,0a.96.96,0,0,0-1.061,1,.97.97,0,0,0,1.04.976c.35.013.7-.008,1.051.01a.694.694,0,0,1,.724.672.684.684,0,0,1-.745.689c-.38.015-.764-.015-1.141.02a.982.982,0,0,0-.9,1.265,1.021,1.021,0,0,0,1.095.71Q1699.819,922.689,1703.429,922.686Zm-.009-8.713h-6.254c-.4,0-.792-.013-1.186.012a.981.981,0,0,0-.11,1.94,3.388,3.388,0,0,0,.635.043q6.917,0,13.833,0a3.387,3.387,0,0,0,.635-.043.947.947,0,0,0,.787-1.019c-.026-.578-.441-.931-1.126-.932Q1707.028,913.968,1703.421,913.973Zm5.917,10.111h-11.829a1.574,1.574,0,0,0,1.548,1.782q4.359.025,8.718,0A1.582,1.582,0,0,0,1709.337,924.084Z" transform="translate(-1687.171 -880.438)" fill="#ed3237"/>
  <path id="Path_8160" data-name="Path 8160" d="M1746.482,886c0,.35.015.7,0,1.051a1.608,1.608,0,0,1-1.569,1.589.7.7,0,0,0-.738.575,11.372,11.372,0,0,1-.618,1.419.552.552,0,0,0,.1.729,1.663,1.663,0,0,1-.042,2.477c-.414.425-.832.848-1.261,1.259a1.653,1.653,0,0,1-2.413.009.623.623,0,0,0-.84-.135,10.481,10.481,0,0,1-1.433.584.539.539,0,0,0-.443.582,1.7,1.7,0,0,1-1.847,1.806c-.548,0-1.1.007-1.645,0a1.689,1.689,0,0,1-1.791-1.769.561.561,0,0,0-.452-.622,13,13,0,0,1-1.474-.605.564.564,0,0,0-.731.1,1.671,1.671,0,0,1-2.545-.023c-.413-.406-.825-.812-1.227-1.229a1.645,1.645,0,0,1-.029-2.408.576.576,0,0,0,.119-.764,15.8,15.8,0,0,1-.668-1.547.557.557,0,0,0-.556-.429,1.647,1.647,0,0,1-1.7-1.79c-.007-.594-.012-1.188,0-1.782a1.615,1.615,0,0,1,1.525-1.682.7.7,0,0,0,.688-.576,15.232,15.232,0,0,1,.63-1.562.539.539,0,0,0-.082-.657,1.653,1.653,0,0,1,.088-2.378c.423-.438.853-.87,1.293-1.291a1.64,1.64,0,0,1,2.275-.118.59.59,0,0,0,.736.063c.547-.261,1.113-.486,1.681-.7a.581.581,0,0,0,.441-.548,1.669,1.669,0,0,1,1.743-1.528q.891-.011,1.782,0a1.666,1.666,0,0,1,1.738,1.533.578.578,0,0,0,.447.541q.872.333,1.72.726a.541.541,0,0,0,.658-.062,1.656,1.656,0,0,1,2.344.128c.417.4.824.813,1.228,1.227a1.713,1.713,0,0,1,.128,2.427.748.748,0,0,0-.09.595,17.874,17.874,0,0,0,.71,1.775.7.7,0,0,0,.432.361,1.727,1.727,0,0,1,1.7,1.963c0,.228,0,.457,0,.685Zm-16.912,7.364c.4.134.689.217.968.327.467.182.92.4,1.391.568a1.72,1.72,0,0,1,1.362,1.811c.01.382.178.513.534.5.487-.01.975-.016,1.462,0,.406.015.571-.141.574-.561a1.683,1.683,0,0,1,1.282-1.728,10.107,10.107,0,0,0,1.309-.529,1.808,1.808,0,0,1,2.369.309.385.385,0,0,0,.63-.007c.363-.37.722-.743,1.1-1.1a.453.453,0,0,0,.026-.763,1.685,1.685,0,0,1-.268-2.136,9.979,9.979,0,0,0,.581-1.337,1.811,1.811,0,0,1,1.817-1.441c.291,0,.41-.147.409-.425,0-.533-.013-1.067,0-1.6.013-.37-.144-.518-.505-.539a1.664,1.664,0,0,1-1.564-1.251,13.859,13.859,0,0,0-.622-1.566,1.757,1.757,0,0,1,.221-2.152c.215-.235.159-.426-.049-.628-.383-.371-.762-.746-1.131-1.131a.423.423,0,0,0-.669-.027,1.712,1.712,0,0,1-2,.176,14.1,14.1,0,0,0-1.595-.671,1.77,1.77,0,0,1-1.347-1.6.387.387,0,0,0-.444-.4c-.564,0-1.127,0-1.691,0-.283,0-.406.141-.432.417a1.736,1.736,0,0,1-1.272,1.559,16.935,16.935,0,0,0-1.68.7,1.707,1.707,0,0,1-2-.191.419.419,0,0,0-.667.043c-.357.375-.722.743-1.1,1.1a.426.426,0,0,0-.039.7,1.7,1.7,0,0,1,.241,1.993,16.013,16.013,0,0,0-.628,1.563,1.747,1.747,0,0,1-1.668,1.376c-.326.014-.455.176-.448.5.012.5.016,1.006,0,1.508-.013.375.1.549.515.562a1.7,1.7,0,0,1,1.652,1.27,12.632,12.632,0,0,0,.609,1.424,1.721,1.721,0,0,1-.271,2.252c-.219.246-.229.435.008.661.341.327.669.667,1,1,.44.438.446.407.931.039A7.208,7.208,0,0,1,1729.57,893.362Z" transform="translate(-1718.326 -869.892)" fill="#ed3237"/>
  <path id="Path_8161" data-name="Path 8161" d="M1745.065,839.689a16.3,16.3,0,0,1,16.3,13.189,15.967,15.967,0,0,1-3.131,13.046c-.346.458-.741.55-1.086.275s-.333-.671.016-1.126a14.626,14.626,0,0,0,3.121-9.57,14.868,14.868,0,0,0-13.029-14.328,14.588,14.588,0,0,0-10.828,2.924c-.085.064-.166.134-.253.2a.7.7,0,0,1-1.017-.085.644.644,0,0,1,.186-.99,34.121,34.121,0,0,1,3.338-2.046A14.654,14.654,0,0,1,1745.065,839.689Z" transform="translate(-1729.165 -839.689)" fill="#ed3237"/>
  <path id="Path_8162" data-name="Path 8162" d="M1775.9,918.9a7.163,7.163,0,1,1-7.147-7.2A7.163,7.163,0,0,1,1775.9,918.9Zm-9.83.848c-.678-1.773-.435-3.085.788-4.038a3.068,3.068,0,0,1,3.663-.071c1.284.913,1.537,2.153.86,4.189.42.275.86.521,1.25.831s.748.694,1.119,1.045a5.692,5.692,0,0,0-1.25-7.236,5.77,5.77,0,0,0-7.775.231,5.632,5.632,0,0,0-1.037,6.941Zm-1.454,3.157a5.654,5.654,0,0,0,8.224-.028,4.719,4.719,0,0,0-2.3-1.858,1.015,1.015,0,0,0-.641-.006,3.391,3.391,0,0,1-2.323,0,.953.953,0,0,0-.6,0A4.733,4.733,0,0,0,1764.616,922.9Zm4.105-3.054a1.707,1.707,0,1,0-1.7-1.731A1.715,1.715,0,0,0,1768.721,919.848Z" transform="translate(-1752.487 -902.9)" fill="#ed3237"/>
</svg>
