<svg id="Group_7953" data-name="Group 7953" xmlns="http://www.w3.org/2000/svg" width="46.813" height="28.9" viewBox="0 0 46.813 28.9">
  <path id="Path_8145" data-name="Path 8145" d="M1488.838,256.741c.269-.64.55-1.276.805-1.921q1.938-4.9,3.865-9.8a1.465,1.465,0,0,1,2.195-.973c1.105.431,2.207.871,3.312,1.3a1.479,1.479,0,0,1,1.045,1.5.435.435,0,0,0,.21.318,6.348,6.348,0,0,0,2.76.657,19.266,19.266,0,0,1,5.7.6.521.521,0,0,0,.391-.1,3.524,3.524,0,0,0,.46-.442,3.579,3.579,0,0,1,3.369-1.083c.735.125,1.472.236,2.208.355.495.08.771.372.73.77-.043.423-.391.663-.911.591-.829-.116-1.654-.255-2.481-.383a2,2,0,0,0-1.8.582,42.56,42.56,0,0,1-6.407,5.352c-.407.27-.406.526-.033.835a2.672,2.672,0,0,0,2.629.428,8.8,8.8,0,0,0,3.171-1.937,1.6,1.6,0,0,1,2.486.058,7.881,7.881,0,0,0,6.9,2.37,1.282,1.282,0,0,1,1.012.277c1.806,1.347,3.623,2.68,5.465,4.038l2.941-1.889-3.9-9.883c-.448.161-.871.283-1.268.462a6.521,6.521,0,0,1-4.239.411c-.355-.08-.721-.114-1.081-.178a.691.691,0,0,1-.66-.777.665.665,0,0,1,.826-.58c.5.057,1,.13,1.488.233a4.576,4.576,0,0,0,2.775-.24c.463-.193.944-.341,1.406-.537a.418.418,0,0,0,.207-.312,1.447,1.447,0,0,1,1.011-1.468c1.176-.457,2.344-.936,3.521-1.393a1.394,1.394,0,0,1,1.934.833c.585,1.453,1.156,2.911,1.727,4.37a.707.707,0,0,1-.359,1.022c-.378.141-.724-.047-.913-.52-.524-1.314-1.039-2.631-1.559-3.946-.067-.168-.141-.333-.223-.525l-3.77,1.491,4.706,11.93,3.783-1.488-1.429-3.628c-.095-.24-.2-.477-.282-.722a.69.69,0,0,1,.367-.879.665.665,0,0,1,.9.391c.591,1.467,1.178,2.936,1.733,4.416a1.29,1.29,0,0,1-.669,1.624c-1.315.56-2.649,1.075-3.986,1.58a1.339,1.339,0,0,1-1.257-.219.49.49,0,0,0-.42-.06c-.818.5-1.618,1.025-2.416,1.537.507,2.61-.684,4.035-3.19,3.849-.526,1.9-1.24,2.449-3.286,2.515a17.61,17.61,0,0,0-5.936,4.86c-1.3.279-2.2-.492-3.161-1.236-.183.21-.36.41-.534.613a2.509,2.509,0,0,1-4.434-1.1c-.024-.11-.164-.274-.255-.279a2.542,2.542,0,0,1-2.572-2.306c-1.765-.23-2.457-.824-2.75-2.35-2.407-.4-3.307-1.818-2.4-3.867-.155-.114-.315-.245-.488-.355-.886-.564-1.77-1.132-2.67-1.673a1.034,1.034,0,0,0-.516-.029,3.559,3.559,0,0,1-1.185.04c-1.25-.43-2.468-.953-3.7-1.43a1.8,1.8,0,0,1-.907-.966Zm10.666-8.358-3.974,10.075,3.686,2.339c.375-.432.728-.871,1.114-1.279a2.5,2.5,0,0,1,4.2.975c.057.186.093.379.136.559,1.682.134,2.312.669,2.781,2.346a2.588,2.588,0,0,1,2.751,2.37,2.443,2.443,0,0,1,2.516,1.495,2.556,2.556,0,0,1-.6,2.9,10.986,10.986,0,0,0,1.4.839,1.289,1.289,0,0,0,1.618-.663,1.215,1.215,0,0,0-.4-1.6c-.35-.27-.7-.534-1.046-.814a.679.679,0,0,1-.193-1,.7.7,0,0,1,1.048-.07c.172.125.336.263.506.391.583.44,1.153.9,1.756,1.312a1.366,1.366,0,0,0,1.91-.306,1.329,1.329,0,0,0-.354-1.879c-.566-.438-1.138-.869-1.7-1.313a.688.688,0,1,1,.839-1.078c.2.142.385.3.58.445.667.506,1.318,1.036,2.008,1.509a1.36,1.36,0,0,0,1.9-.35,1.3,1.3,0,0,0-.364-1.84c-.675-.521-1.354-1.037-2.023-1.566a.581.581,0,0,1-.216-.8,1.1,1.1,0,0,1,.633-.413c.163-.034.4.124.559.246.939.7,1.861,1.428,2.8,2.128a1.363,1.363,0,0,0,2.021-.207,1.414,1.414,0,0,0-.41-2q-2.55-1.892-5.117-3.759a.929.929,0,0,0-.582-.157,9.292,9.292,0,0,1-7.605-2.731c-.3-.286-.47-.3-.778-.024a9.805,9.805,0,0,1-3.481,2.128,4.057,4.057,0,0,1-3.865-.52,1.835,1.835,0,0,1,.065-3.231c1.307-.943,2.555-1.969,3.831-2.954a2.272,2.272,0,0,1,.357-.188l-.113-.22c-.933-.078-1.866-.17-2.8-.23-1.138-.073-2.286-.053-3.412-.2A10.568,10.568,0,0,1,1499.5,248.383Zm-.81-1.685-3.783-1.493-4.708,11.936,3.782,1.49Zm1.856,17.648a1.388,1.388,0,0,0,.572-.254c.687-.75,1.362-1.516,1.981-2.322a1.045,1.045,0,0,0-.272-1.426,1.063,1.063,0,0,0-1.421.051c-.661.713-1.288,1.459-1.9,2.217a1,1,0,0,0-.057,1.123A1.16,1.16,0,0,0,1500.55,264.346Zm1.475,1.188a1.31,1.31,0,0,0,.762,1.067,1.081,1.081,0,0,0,1.282-.319q.847-.956,1.658-1.944a1.111,1.111,0,0,0-.106-1.626,1.128,1.128,0,0,0-1.621.194c-.543.616-1.081,1.238-1.594,1.879A4.054,4.054,0,0,0,1502.025,265.534Zm6.866,5.844a1.512,1.512,0,0,0,.559-.28c.667-.728,1.319-1.472,1.927-2.25a1.107,1.107,0,0,0-1.672-1.42c-.671.724-1.307,1.482-1.918,2.257a.973.973,0,0,0-.015,1.122A1.176,1.176,0,0,0,1508.891,271.378Zm-2.87-2.3a2.347,2.347,0,0,0,.7-.363c.648-.7,1.275-1.431,1.867-2.183a1.073,1.073,0,0,0-.2-1.476,1.046,1.046,0,0,0-1.453.028c-.662.712-1.288,1.459-1.9,2.219a.977.977,0,0,0-.032,1.159A1.264,1.264,0,0,0,1506.02,269.082Z" transform="translate(-1488.838 -243.848)" fill="#ed3237"/>
</svg>
