<svg id="Group_7954" data-name="Group 7954" xmlns="http://www.w3.org/2000/svg" width="43.89" height="43.894" viewBox="0 0 43.89 43.894">
  <path id="Path_8170" data-name="Path 8170" d="M2378.938,658.3h-17.964a3.676,3.676,0,0,1-3.945-3.934q0-12.527,0-25.054a3.673,3.673,0,0,1,3.943-3.934c2.331,0,4.663-.005,6.994.006a.641.641,0,0,0,.591-.312,5.454,5.454,0,0,0,1.043-2.6,9.491,9.491,0,0,1,18.708-.341,1.48,1.48,0,0,1,.066.358,3.889,3.889,0,0,0,1.1,2.665.745.745,0,0,0,.53.216c2.331.014,4.663.008,6.994.01a3.67,3.67,0,0,1,3.92,3.912q0,12.55,0,25.1a3.672,3.672,0,0,1-3.923,3.91Zm-10.952-15.382v-1.409c-.617-.236-.715-.375-.716-1.018,0-.777.021-1.555-.008-2.331-.021-.568.118-.993.714-1.1v-5.8l-.673-.048v-1.425l.667-.03v-2.91h-.481q-3.291,0-6.583,0a2.21,2.21,0,0,0-2.415,2.413q0,6.607,0,13.213c0,.147.013.294.021.45Zm22.664-13.14v1.435l-.692.042v5.788c.618.243.717.383.719,1.015,0,.777-.02,1.555.007,2.331.02.566-.11,1-.716,1.111v1.408h9.487v-.34q0-6.721,0-13.441a2.184,2.184,0,0,0-2.312-2.285q-3.4-.007-6.811,0c-.117,0-.234.015-.353.023v2.913Zm-22.681,27.059v-12.4H2358.5c0,3.476-.018,6.917.01,10.358a2.138,2.138,0,0,0,2.082,2.038c.5.02,1,.006,1.507.006Zm22,0h.465q3.289,0,6.578,0a2.216,2.216,0,0,0,2.444-2.428q0-4.752,0-9.5v-.469h-9.487Zm-14.638-25.61v5.813c.628.255.717.385.717,1.06,0,.762-.02,1.524.007,2.285.02.564-.1,1-.7,1.113v1.414h7.259V641.5c-.589-.114-.737-.52-.719-1.074.025-.776.006-1.554.006-2.331,0-.669.087-.8.7-1.052V631.22h-.676v-1.435l.67-.044v-2.877h-7.248v2.908h.676v1.452Zm7.268,25.59v-12.38h-7.258v12.38Zm-3.653-31.439c.792,0,1.584,0,2.376,0,.547,0,1.193.163,1.614-.072.439-.245.662-.88.98-1.344.017-.025.045-.047.051-.075a1.561,1.561,0,0,0,.1-.472,5.121,5.121,0,0,0-10.1-.6,1.527,1.527,0,0,0,.281,1.485c.212.235.335.55.549.783a.861.861,0,0,0,.54.283C2376.538,625.387,2377.742,625.375,2378.945,625.375Zm-5.741-.015a8.819,8.819,0,0,0-.494-.738,1.575,1.575,0,0,1-.311-1.2,6.593,6.593,0,0,1,13.05-.747,2.448,2.448,0,0,1-.479,2.346,1.807,1.807,0,0,0-.192.327h3.11a3.664,3.664,0,0,1-.959-2.46,8.018,8.018,0,0,0-15.91-.022,4.154,4.154,0,0,1-.827,2.394c-.013.015,0,.056.007.1Zm-3.739,16.132c0,2.059,0,4.083,0,6.107a.32.32,0,0,0,.066.207c.7.708,1.413,1.411,2.15,2.143.667-.677,1.308-1.307,1.919-1.964a.962.962,0,0,0,.24-.589c.02-1.539.011-3.078.011-4.617v-1.287Zm16.827,8.448c.668-.668,1.315-1.29,1.927-1.944a1.017,1.017,0,0,0,.252-.628c.02-1.813.011-3.626.011-5.44v-.435h-4.337c-.021.048-.043.075-.043.1,0,1.981-.009,3.961,0,5.942a.564.564,0,0,0,.148.355C2384.907,648.566,2385.579,649.228,2386.292,649.939Zm-16.805,6.863h4.325v-6.972c-.539.552-1,1.035-1.475,1.508-.511.511-.846.512-1.354,0-.476-.48-.94-.972-1.5-1.548Zm14.639-6.992v6.99h4.332v-6.858l-.093-.068c-.468.49-.929.987-1.405,1.469-.5.511-.841.505-1.354-.011C2385.134,650.856,2384.672,650.372,2384.125,649.81Zm-10.3-12.747v-5.8h-1.449v1.4h-1.467v-1.408h-1.414v5.81Zm11.728-5.81h-1.428v5.8h4.329v-5.8h-1.434v1.41h-1.467Zm-16.065-1.521h4.332v-2.87h-4.332Zm18.978-2.862h-4.332v2.87h4.332Zm-19.708,13.106h5.794v-1.409h-5.794Zm14.625,0h5.81v-1.4h-5.81Z" transform="translate(-2357.029 -614.403)" fill="#ed3237"/>
  <path id="Path_8171" data-name="Path 8171" d="M2470.9,777.821v-1.4h1.423v1.4Z" transform="translate(-2456.988 -756.634)" fill="#ed3237"/>
  <path id="Path_8172" data-name="Path 8172" d="M2590.8,776.28h1.409V777.7H2590.8Z" transform="translate(-2562.251 -756.51)" fill="#ed3237"/>
</svg>
