<svg id="Group_7955" data-name="Group 7955" xmlns="http://www.w3.org/2000/svg" width="43.66" height="43.47" viewBox="0 0 43.66 43.47">
  <path id="Path_8146" data-name="Path 8146" d="M1377.5,1033.184a2.145,2.145,0,0,1-1.166,1.329.638.638,0,0,1-.242.077c-.8-.048-1.119.448-1.293,1.124a1.831,1.831,0,0,1-.2.467.766.766,0,0,0,.114,1,1.827,1.827,0,0,1-.067,2.515c-.328.354-.67.7-1.025,1.024a1.836,1.836,0,0,1-2.485.078.817.817,0,0,0-1.039-.129,7.144,7.144,0,0,1-1.021.421.7.7,0,0,0-.493.625,1.892,1.892,0,0,1-2.146,1.86c-.355,0-.71.006-1.066,0a1.84,1.84,0,0,1-1.878-1.679.869.869,0,0,0-.746-.885.666.666,0,0,1-.2-.077,1.556,1.556,0,0,0-2,.068,1.583,1.583,0,0,1-2.046-.22,11.942,11.942,0,0,1-1.148-1.141,1.809,1.809,0,0,1-.024-2.449.8.8,0,0,0,.129-1,8.073,8.073,0,0,1-.421-1.022.718.718,0,0,0-.653-.519,1.857,1.857,0,0,1-1.832-2.073c0-.37,0-.739,0-1.108a1.848,1.848,0,0,1,1.727-1.919.8.8,0,0,0,.795-.625,8.223,8.223,0,0,1,.428-1.019.7.7,0,0,0-.111-.822,1.861,1.861,0,0,1,.124-2.706c.29-.293.577-.589.876-.873a1.838,1.838,0,0,1,2.548-.09.8.8,0,0,0,.971.13c.343-.167.7-.3,1.061-.437a.7.7,0,0,0,.489-.627,1.872,1.872,0,0,1,2.108-1.848c.4,0,.8-.009,1.194,0a1.806,1.806,0,0,1,1.793,1.662.844.844,0,0,0,.707.873.775.775,0,0,1,.2.074,1.581,1.581,0,0,0,2.038-.061,1.639,1.639,0,0,1,2.081.254c.378.345.74.708,1.086,1.084a1.815,1.815,0,0,1,.073,2.45.871.871,0,0,0-.117,1.115c.167.31.241.671.417.976.108.188.32.43.5.442a2.064,2.064,0,0,1,1.962,1.552Zm-19.408,5.216a3.441,3.441,0,0,0,.3.48c.227.254.477.487.719.727.459.455.656.465,1.163.067a1.827,1.827,0,0,1,1.959-.272c.314.132.617.294.94.4a1.988,1.988,0,0,1,1.565,1.89.611.611,0,0,0,.685.608c.341,0,.682,0,1.023,0,.638,0,.8-.139.875-.777a1.858,1.858,0,0,1,1.23-1.6c.315-.13.643-.232.945-.387a1.971,1.971,0,0,1,2.4.247.606.606,0,0,0,.91-.058q.363-.361.723-.723c.459-.462.467-.649.066-1.161a1.83,1.83,0,0,1-.274-1.959c.142-.34.306-.673.425-1.021a1.988,1.988,0,0,1,1.864-1.491.6.6,0,0,0,.6-.678c0-.37,0-.739,0-1.109,0-.545-.182-.732-.73-.783a1.847,1.847,0,0,1-1.625-1.193c-.146-.339-.256-.694-.421-1.023a1.954,1.954,0,0,1,.265-2.366.6.6,0,0,0-.051-.91c-.239-.244-.481-.484-.723-.724-.465-.461-.655-.473-1.161-.074a1.855,1.855,0,0,1-2,.261,8.494,8.494,0,0,0-.822-.349,2.059,2.059,0,0,1-1.661-1.961.559.559,0,0,0-.63-.553q-.554,0-1.109,0c-.617,0-.767.144-.834.766a1.811,1.811,0,0,1-1.152,1.56c-.338.147-.692.261-1.021.424a1.988,1.988,0,0,1-2.407-.255.587.587,0,0,0-.876.033c-.267.255-.525.521-.784.784-.419.425-.435.642-.064,1.1a1.86,1.86,0,0,1,.287,2.032c-.138.327-.293.647-.409.981a1.968,1.968,0,0,1-1.865,1.483.584.584,0,0,0-.595.644c0,.369,0,.739,0,1.108,0,.6.124.744.727.818a1.917,1.917,0,0,1,1.671,1.322c.135.358.279.714.438,1.061a1.9,1.9,0,0,1-.278,2.147A4.3,4.3,0,0,0,1358.092,1038.4Z" transform="translate(-1333.84 -1000.109)" fill="#ed3237"/>
  <path id="Path_8147" data-name="Path 8147" d="M1177.686,854.237v.687q0,13.151,0,26.3c0,1.075.421,1.5,1.492,1.5h20.888c.156,0,.313-.007.469.007a.594.594,0,0,1,.592.609.608.608,0,0,1-.553.649,2,2,0,0,1-.383.013q-10.551,0-21.1,0a2.481,2.481,0,0,1-2.683-2.681c0-.309,0-.618,0-.971-.383,0-.72,0-1.058,0a2.468,2.468,0,0,1-2.594-2.6q0-10.572,0-21.144,0-6.671,0-13.343a2.5,2.5,0,0,1,2.727-2.729h25.535a2.5,2.5,0,0,1,2.743,2.718c0,.3,0,.591,0,.935.393,0,.745,0,1.1,0a2.428,2.428,0,0,1,2.533,2.476c.015,4.121.007,8.242,0,12.362,0,.473-.238.755-.615.765-.406.011-.66-.291-.661-.816q0-5.861,0-11.723c0-.156,0-.312,0-.469a1.194,1.194,0,0,0-1.323-1.316q-3.432-.005-6.864,0h-10.913c-.567,0-.568,0-.568.555q0,2.728,0,5.457a2.514,2.514,0,0,1-2.749,2.758q-2.728,0-5.457,0Zm24.794-10.05c0-.328,0-.6,0-.864,0-1.094-.425-1.51-1.531-1.51h-25.362c-1.151,0-1.553.406-1.553,1.568q0,17.072,0,34.143a4.538,4.538,0,0,0,.01.469,1.162,1.162,0,0,0,1.008,1.056c.433.04.872.008,1.356.008v-.572q0-11.765-.009-23.529a3.734,3.734,0,0,1,1.171-2.813q3.426-3.385,6.813-6.811a3.693,3.693,0,0,1,2.779-1.152c4.916.018,9.832.008,14.749.008Zm-17.312,2.383-6.375,6.378c1.693,0,3.463.022,5.233-.011a1.15,1.15,0,0,0,1.136-1.244c.021-.638.006-1.277.006-1.916C1185.167,848.688,1185.167,847.6,1185.167,846.57Z" transform="translate(-1172.753 -840.534)" fill="#ed3237"/>
  <path id="Path_8148" data-name="Path 8148" d="M1332.157,915.943c1.7,0,3.409,0,5.113,0a1.52,1.52,0,0,1,1.694,1.678c0,.511.011,1.023,0,1.534a1.5,1.5,0,0,1-1.561,1.559c-1.988.01-3.977.006-5.965,0-.484,0-.78-.27-.765-.666.014-.376.3-.609.771-.61,1.9,0,3.806-.011,5.709.006.407,0,.568-.122.542-.535s-.013-.852,0-1.278c.006-.278-.088-.416-.392-.415q-5.135.009-10.269,0c-.272,0-.385.108-.379.381.01.483.012.966,0,1.449-.008.305.143.4.419.391.4-.008.8-.009,1.193,0a.637.637,0,1,1,.02,1.271c-.483.015-.967.023-1.448,0a1.5,1.5,0,0,1-1.457-1.532q-.014-.852,0-1.7a1.485,1.485,0,0,1,1.542-1.527c1.747-.011,3.494,0,5.241,0Z" transform="translate(-1307.982 -907.352)" fill="#ed3237"/>
  <path id="Path_8149" data-name="Path 8149" d="M1242.671,1042.471c1.633,0,3.266-.011,4.9.013a.976.976,0,0,1,.653.288.6.6,0,0,1-.391.953,2.111,2.111,0,0,1-.466.025h-9.412a3.23,3.23,0,0,1-.341-.005.631.631,0,0,1-.614-.677.6.6,0,0,1,.647-.591c.951-.01,1.9,0,2.853,0Z" transform="translate(-1229.678 -1019.465)" fill="#ed3237"/>
  <path id="Path_8150" data-name="Path 8150" d="M1242.665,1081.308q-2.428,0-4.855,0c-.542,0-.822-.224-.818-.641s.288-.636.829-.637q4.855,0,9.711,0c.529,0,.853.294.8.71-.043.358-.316.565-.771.566Q1245.114,1081.311,1242.665,1081.308Z" transform="translate(-1229.673 -1052.746)" fill="#ed3237"/>
  <path id="Path_8151" data-name="Path 8151" d="M1242.885,1118.914c-1.618,0-3.236.005-4.854-.006a.938.938,0,0,1-.591-.154.751.751,0,0,1-.209-.59.883.883,0,0,1,.412-.473,1.013,1.013,0,0,1,.5-.055q4.726,0,9.453,0c.085,0,.171,0,.255,0a.664.664,0,0,1,.695.653.646.646,0,0,1-.719.619c-1.646.007-3.293,0-4.939,0Z" transform="translate(-1229.88 -1086.067)" fill="#ed3237"/>
  <path id="Path_8152" data-name="Path 8152" d="M1240.008,1156.647c-.81,0-1.62.013-2.429,0-.579-.012-.923-.511-.634-.937a.836.836,0,0,1,.587-.322c1.661-.026,3.324-.019,4.986-.012a.622.622,0,0,1,.7.626.641.641,0,0,1-.7.644C1241.684,1156.657,1240.846,1156.647,1240.008,1156.647Z" transform="translate(-1229.54 -1119.502)" fill="#ed3237"/>
  <path id="Path_8153" data-name="Path 8153" d="M1401.971,1074.941a6.84,6.84,0,1,1,6.877-6.8A6.855,6.855,0,0,1,1401.971,1074.941Zm4.871-4.16a5.448,5.448,0,0,0-1.164-6.845,5.532,5.532,0,0,0-7.513.146,5.426,5.426,0,0,0-1,6.691l2.313-1.83c-.693-1.594-.451-2.932.732-3.85a2.929,2.929,0,0,1,3.562-.015c1.193.917,1.435,2.24.751,3.865Zm-.882,1.18a4.572,4.572,0,0,0-2.386-1.882.706.706,0,0,0-.443.037,3.126,3.126,0,0,1-2.248.008.832.832,0,0,0-.52-.016,4.525,4.525,0,0,0-2.32,1.844A5.459,5.459,0,0,0,1405.96,1071.961Zm-3.976-2.906a1.644,1.644,0,1,0,.031-3.287,1.644,1.644,0,1,0-.031,3.287Z" transform="translate(-1369.818 -1036.117)" fill="#ed3237"/>
</svg>
