<svg id="Group_7956" data-name="Group 7956" xmlns="http://www.w3.org/2000/svg" width="43.882" height="35.103" viewBox="0 0 43.882 35.103">
  <path id="Path_8173" data-name="Path 8173" d="M2274.494-140.522c-.154.752-.311,1.48-.448,2.21a.765.765,0,0,1-.621.7.753.753,0,0,1-.8-.409c-.494-.75-.986-1.5-1.5-2.235a.669.669,0,0,0-.464-.253c-1.157-.021-2.316-.023-3.473,0a.724.724,0,0,0-.5.277c-.5.707-.977,1.434-1.452,2.16a.788.788,0,0,1-.864.454.783.783,0,0,1-.6-.723c-.131-.717-.289-1.43-.443-2.181h-15.314c-.835,0-1.047-.213-1.047-1.055q0-15.035,0-30.07c0-.841.212-1.054,1.048-1.054h41.769c.862,0,1.064.206,1.064,1.084q0,15.012,0,30.024c0,.868-.2,1.071-1.077,1.072h-15.285Zm-18.023-26.313h-3.624v20.41c.048.021.074.043.1.044q4.753.006,9.507,0a.475.475,0,0,0,.329-.173,10.547,10.547,0,0,0,.659-.987.77.77,0,0,0-.6-1.027h-4.862v-1.479h5.047a5.949,5.949,0,0,1,5.777-5.841,5.964,5.964,0,0,1,6.005,5.863h5.042v1.458h-5.212a1.09,1.09,0,0,0,.073,1.533,1.082,1.082,0,0,1,.2.3.614.614,0,0,0,.651.365c3-.013,6-.007,9-.009.132,0,.265-.013.4-.02v-20.481h-3.6v-1.44c1.379,0,2.731,0,4.084,0,.779,0,1.008.228,1.008,1q0,10.7,0,21.391c0,.779-.228,1.009-1,1.009h-8.776c-.158,0-.317.013-.538.023.594.893,1.163,1.718,1.7,2.565a.675.675,0,0,0,.666.343c3.474-.009,6.948-.006,10.421-.007.146,0,.292-.013.437-.02v-29.207h-40.9v29.227c3.718,0,7.4,0,11.088-.012a.587.587,0,0,0,.368-.267c.535-.777,1.055-1.565,1.576-2.352a2.284,2.284,0,0,0,.136-.294h-.551q-4.411,0-8.822,0c-.631,0-.9-.261-.9-.881q0-10.833,0-21.665a.743.743,0,0,1,.833-.854c1.356-.007,2.712,0,4.068,0a.911.911,0,0,1,.206.048Zm12.449,21.193a4.4,4.4,0,0,0,4.382-4.442,4.4,4.4,0,0,0-4.394-4.334,4.394,4.394,0,0,0-4.38,4.394A4.4,4.4,0,0,0,2268.921-145.642Zm-4.529-.671-2.657,3.991c.653-.127,1.189-.23,1.724-.337.652-.13.944.054,1.083.7.118.551.231,1.1.367,1.749l2.733-4.1A6.12,6.12,0,0,1,2264.391-146.314Zm8.535,6.1c.137-.664.25-1.228.371-1.79a.754.754,0,0,1,1.025-.671l1.776.351-2.616-3.925a16.439,16.439,0,0,1-1.515,1.185,16.067,16.067,0,0,1-1.73.816Zm-5.057-1.806h2.093l-1.048-1.57Z" transform="translate(-2246.975 172.702)" fill="#ed3237"/>
  <path id="Path_8174" data-name="Path 8174" d="M2339.914-145.987h-2.867v-1.468c.948,0,1.89-.037,2.827.009a8.671,8.671,0,0,0,3.621-.64,12.516,12.516,0,0,1,9.816.31,3.547,3.547,0,0,0,1.532.328c1.353-.023,2.706-.008,4.086-.008V-146h-2.9v1.428c0,.67,0,1.34,0,2.01,0,.836-.451,1.139-1.211.818-.994-.421-1.98-.862-2.979-1.27a9.862,9.862,0,0,0-7.857.06c-.952.4-1.9.819-2.851,1.221-.731.308-1.187,0-1.19-.8,0-1.1,0-2.193,0-3.29A1.424,1.424,0,0,0,2339.914-145.987Zm14.655,2.63c0-.772.01-1.365-.009-1.957a.435.435,0,0,0-.186-.314,13.11,13.11,0,0,0-6.1-1.826,12.92,12.92,0,0,0-6.689,1.83.349.349,0,0,0-.176.228c-.014.629-.008,1.258-.008,2.052A12.387,12.387,0,0,1,2354.569-143.357Z" transform="translate(-2326.047 151.843)" fill="#ed3237"/>
  <path id="Path_8175" data-name="Path 8175" d="M2404.235-64.659v1.409h-7.256v-1.409Z" transform="translate(-2378.659 77.854)" fill="#ed3237"/>
  <path id="Path_8176" data-name="Path 8176" d="M2408.826-87.262v-1.406h4.331v1.406Z" transform="translate(-2389.059 98.931)" fill="#ed3237"/>
  <path id="Path_8177" data-name="Path 8177" d="M2348.95-63.314v-1.408h4.331v1.408Z" transform="translate(-2336.496 77.91)" fill="#ed3237"/>
  <path id="Path_8178" data-name="Path 8178" d="M2473.179-64.647v1.406h-4.33v-1.406Z" transform="translate(-2441.751 77.844)" fill="#ed3237"/>
  <path id="Path_8179" data-name="Path 8179" d="M2313.145,13.069h1.4v1.422h-1.4Z" transform="translate(-2305.063 9.619)" fill="#ed3237"/>
  <path id="Path_8180" data-name="Path 8180" d="M2528.625,13.1h1.406v1.414h-1.406Z" transform="translate(-2494.227 9.59)" fill="#ed3237"/>
  <path id="Path_8181" data-name="Path 8181" d="M2418.762,6.947c.749,0,1.094.229,1.1.728s-.35.735-1.09.735-1.094-.23-1.1-.729S2418.019,6.947,2418.762,6.947Z" transform="translate(-2396.825 14.994)" fill="#ed3237"/>
</svg>
