<svg id="Group_7957" data-name="Group 7957" xmlns="http://www.w3.org/2000/svg" width="46.835" height="42.006" viewBox="0 0 46.835 42.006">
  <path id="Path_8154" data-name="Path 8154" d="M1709.839,1341.339c-.042.127-.089.253-.125.382a3.507,3.507,0,0,1-3.106,2.566c-.258.021-.517.027-.776.027q-6.079,0-12.158,0h-.6l.933,4.031c.651.039,1.264.032,1.862.119a4.5,4.5,0,0,1,3.793,4.385,1.548,1.548,0,0,1-1.346,1.59,4.009,4.009,0,0,1-.592.031q-9.325,0-18.649,0c-1.414,0-2.014-.65-1.891-2.042a4.521,4.521,0,0,1,4.309-4.039c.335-.013.672.012,1-.016.12-.01.313-.106.335-.2.307-1.254.591-2.514.9-3.864h-.615q-6.171,0-12.342,0a3.715,3.715,0,0,1-2.612-.9,3.5,3.5,0,0,1-1.2-2.714c0-2.209.005-4.419-.013-6.628a1,1,0,0,0-.255-.626,11.859,11.859,0,0,1-3.162-12.152,11.659,11.659,0,0,1,9.05-8.509,11.893,11.893,0,0,1,8.934,1.423,1.785,1.785,0,0,0,.846.238q11.793.019,23.586.01a3.525,3.525,0,0,1,3.821,2.891.751.751,0,0,0,.06.122Zm-26.076-25.5c4.4,4.994,4.891,10.292,1.47,16.041.3.286.642.615,1,.925a.433.433,0,0,0,.32.1,1.64,1.64,0,0,1,1.55.578c1.481,1.493,2.975,2.972,4.454,4.466a.911.911,0,0,0,.716.3q2.605-.02,5.211,0a.681.681,0,0,1,.768.712c-.011.407-.286.651-.769.657-.67.009-1.341,0-2.011,0h-2.321c.475,1.544.456,1.76-.283,3.294.159.009.3.024.449.024.762,0,1.524,0,2.286,0q4.776,0,9.553,0a2.052,2.052,0,0,0,2.163-1.413,11.422,11.422,0,0,0,.2-1.9h-1.9c-1.676,0-3.352,0-5.028,0a.655.655,0,0,1-.731-.648.684.684,0,0,1,.715-.72c.121-.009.244,0,.366,0h6.523v-.535q0-9.713,0-19.425a2.19,2.19,0,0,0-2.462-2.441h-22.242Zm-8.545-1.982a10.847,10.847,0,1,0,10.875,10.952A10.855,10.855,0,0,0,1675.218,1313.854Zm-6.874,25.759c0,.372,0,.675,0,.977a2.155,2.155,0,0,0,2.327,2.34q9.09.005,18.18,0c.138,0,.277-.018.548-.038-1.062-1.05-2.031-1.994-2.981-2.958a1.014,1.014,0,0,0-.8-.33q-8.359.015-16.718.007Zm20.072,13.488h9.321c.568,0,.593-.033.514-.61a3.044,3.044,0,0,0-2.567-2.66,13.217,13.217,0,0,0-1.958-.072q-5.985-.008-11.971,0a3.146,3.146,0,0,0-3.188,2.7c-.075.62-.053.646.574.646Zm-20.052-14.9h16.389l-.652-.569a1.7,1.7,0,0,1-.663-1.652.376.376,0,0,0-.081-.28c-.327-.356-.67-.7-.981-1.018-4.672,2.93-9.312,3-14.012.171Zm24.193,10.168a.981.981,0,0,0,0-.192c-.275-1.2-.542-2.4-.844-3.6-.03-.116-.282-.248-.432-.25-1.919-.017-3.838-.006-5.757-.017-.277,0-.4.079-.462.362-.176.849-.382,1.691-.577,2.536l-.266,1.158Zm-5.636-14.088-2.107,2.1c-.01-.032-.01-.013,0,0,1.934,1.941,3.848,3.9,5.813,5.811a1.468,1.468,0,0,0,2.406-.737,1.513,1.513,0,0,0-.481-1.569q-2.7-2.694-5.4-5.392C1687.071,1334.4,1686.975,1334.325,1686.922,1334.278Zm-3.381-.531.792.963.9-.88-.883-.879Z" transform="translate(-1663.005 -1312.467)" fill="#ed3237"/>
  <path id="Path_8155" data-name="Path 8155" d="M1890.371,1384.013h6.8c.152,0,.347-.051.447.023.214.157.5.367.528.582s-.2.491-.382.683c-.088.094-.314.08-.478.08q-6.939.005-13.878,0a1.478,1.478,0,0,1-.363-.019.647.647,0,0,1-.55-.726.631.631,0,0,1,.615-.618,3.484,3.484,0,0,1,.411-.007Z" transform="translate(-1855.688 -1375.26)" fill="#ed3237"/>
  <path id="Path_8156" data-name="Path 8156" d="M1890.3,1419.824h6.756a3.852,3.852,0,0,1,.5.016.567.567,0,0,1,.556.608,1.256,1.256,0,0,1-.423.672c-.107.1-.346.078-.526.078q-6.87.005-13.74,0a1.759,1.759,0,0,1-.538-.064.553.553,0,0,1-.421-.7,1.362,1.362,0,0,1,.541-.578c.116-.08.325-.029.492-.029Z" transform="translate(-1855.635 -1406.698)" fill="#ed3237"/>
  <path id="Path_8157" data-name="Path 8157" d="M1886.347,1455.709c1.035,0,2.07-.011,3.1.005.551.009.913.473.679.905a.933.933,0,0,1-.662.437c-2.084.034-4.169.026-6.254.016a.656.656,0,0,1-.733-.7c.007-.41.272-.659.761-.664C1884.278,1455.7,1885.313,1455.709,1886.347,1455.709Z" transform="translate(-1855.677 -1438.212)" fill="#ed3237"/>
  <path id="Path_8158" data-name="Path 8158" d="M1696.446,1346.135c1.479.341,3.124.3,4.076,1.853a3.407,3.407,0,0,0,.258-.277,8.06,8.06,0,0,0,1.144-8.2,7.911,7.911,0,0,0-6.471-5.149,8.271,8.271,0,0,0-9.467,6.736,1.555,1.555,0,0,1-.125.436.629.629,0,0,1-.814.322.644.644,0,0,1-.445-.794,9.135,9.135,0,0,1,2.395-4.986,9.724,9.724,0,0,1,16.8,5.06,9.714,9.714,0,0,1-19.113,3.445,2.28,2.28,0,0,1-.053-.314.66.66,0,0,1,.535-.776.686.686,0,0,1,.814.554,15.1,15.1,0,0,0,.6,1.91c.314.7.753,1.34,1.19,2.1,1-1.58,2.6-1.557,4.056-1.9a1.069,1.069,0,0,0-.336-1.134,3.651,3.651,0,0,1-.736-1.083,3.218,3.218,0,0,0-.722-1.271,1.117,1.117,0,0,1-.233-.757q-.04-1.393-.007-2.787a2.876,2.876,0,0,1,3-2.939c.914-.008,1.828.006,2.742,0a1.635,1.635,0,0,1,1.665,1.037.65.65,0,0,0,.315.276,1.6,1.6,0,0,1,1.024,1.535c.005.975.029,1.951-.011,2.924a2.34,2.34,0,0,1-.323.869c-.135.272-.319.519-.479.779a9.976,9.976,0,0,1-.943,1.484A1.074,1.074,0,0,0,1696.446,1346.135Zm-1.946,4.8a7.951,7.951,0,0,0,4.425-1.469c.613-.419.619-.779.01-1.229a1.563,1.563,0,0,0-.527-.259c-.573-.146-1.15-.279-1.732-.382a.693.693,0,0,0-.482.125,3.248,3.248,0,0,1-4.093.027.6.6,0,0,0-.4-.145,18.917,18.917,0,0,0-1.987.479,1.711,1.711,0,0,0-.652.533c-.22.246-.168.459.123.67A8.611,8.611,0,0,0,1694.5,1350.936Zm-3.408-9.536c.086.216.1.411.193.459a1.166,1.166,0,0,1,.551.989,2.332,2.332,0,0,0,2.388,1.961,2.4,2.4,0,0,0,2.308-2.075,2.853,2.853,0,0,1,.456-.835c.054-.094.163-.181.169-.276.022-.314.008-.631.008-.968a3.1,3.1,0,0,0-2.21.251,3.527,3.527,0,0,1-1.92.494C1692.428,1341.4,1691.821,1341.4,1691.092,1341.4Zm6.031-2.2c.093-.282,0-.414-.3-.45a.924.924,0,0,1-.874-.846c-.038-.259-.158-.356-.424-.352-.973.012-1.946,0-2.918.01a1.408,1.408,0,0,0-1.357,1.029,10.017,10.017,0,0,0-.117,1.434c1.272-.055,2.478.2,3.582-.518a2.689,2.689,0,0,1,1.132-.3A11.18,11.18,0,0,1,1697.123,1339.2Zm-2,6.94h-1.937c.044.243,0,.633.152.728a1.438,1.438,0,0,0,1.558.011C1695.052,1346.792,1695.044,1346.437,1695.125,1346.145Z" transform="translate(-1681.952 -1330.362)" fill="#ed3237"/>
</svg>
