<svg width="16" height="16" viewBox="0 0 16 16" fill="none" xmlns="http://www.w3.org/2000/svg">
<path d="M1.61212 13.257C1.0905 13.2442 0.60749 12.9896 0.309796 12.5713C0.000681251 12.1573 -0.0827459 11.6216 0.0849852 11.1364L0.309796 10.4318C0.89201 8.99261 1.26962 7.48236 1.43385 5.9428H15.9526C15.7927 7.63228 15.3888 9.29183 14.7539 10.8707L14.3139 12.1599C14.0917 12.8148 13.4647 13.257 12.7587 13.257H1.61212ZM12.7499 14.6285H1.50849C1.62089 15.4137 2.30762 15.9991 3.11993 16H14.3605C15.2641 15.9957 15.9947 15.2817 16 14.4005V11.529L15.6347 12.5713C15.2316 13.7953 14.0672 14.6268 12.7499 14.6285ZM14.3605 0.913756H13.1899V0.68574C13.1899 0.306861 12.8746 1.4649e-06 12.4874 1.4649e-06C12.0992 1.4649e-06 11.7848 0.306861 11.7848 0.68574V0.914612H9.44275V0.68574C9.44275 0.306861 9.12837 1.4649e-06 8.74021 1.4649e-06C8.35206 1.4649e-06 8.03768 0.306861 8.03768 0.68574V0.914612L5.6956 0.913755V0.685738C5.6956 0.306859 5.38123 0 4.99307 0C4.60579 0 4.29054 0.306859 4.29054 0.685738V0.91461L3.11995 0.913753C2.21632 0.918896 1.48569 1.63206 1.48041 2.5141V4.57132H15.9991L16 2.5141C15.9947 1.63208 15.2641 0.918913 14.3605 0.913756Z" fill="white"/>
</svg>
