<svg width="16" height="16" viewBox="0 0 16 16" fill="none" xmlns="http://www.w3.org/2000/svg">
<path d="M13.9048 13.1001H2.24978C1.8908 13.1001 1.59961 13.3911 1.59961 13.7503C1.59961 14.1093 1.89062 14.4004 2.24978 14.4004H13.9048C14.2638 14.4004 14.555 14.1094 14.555 13.7503C14.555 13.3911 14.264 13.1001 13.9048 13.1001Z" fill="#151419" stroke="#151419" stroke-width="0.2"/>
<path d="M7.61819 11.6362C7.64844 11.6665 7.68179 11.6935 7.71732 11.7173C7.73354 11.7283 7.75121 11.7357 7.76816 11.7448C7.78839 11.756 7.8077 11.7682 7.8292 11.7769C7.83066 11.7775 7.83194 11.7786 7.83321 11.7791C7.85362 11.7873 7.87512 11.7917 7.89608 11.7977C7.9143 11.803 7.93161 11.8101 7.95038 11.8137C8.03439 11.8305 8.12113 11.8305 8.20513 11.8137C8.2239 11.8099 8.24121 11.803 8.25943 11.7977C8.28185 11.7911 8.30462 11.7858 8.32649 11.7769C8.34799 11.768 8.36731 11.7558 8.38754 11.7448C8.40448 11.7355 8.42216 11.7281 8.43838 11.7173C8.47409 11.6935 8.50726 11.6665 8.53751 11.6362L11.0429 9.13084C11.2967 8.87701 11.2967 8.46536 11.0429 8.21135C10.7891 7.95751 10.3774 7.95751 10.1234 8.21135L8.72775 9.60699V2.25027C8.72775 1.89111 8.43674 1.6001 8.07757 1.6001C7.71841 1.6001 7.4274 1.89111 7.4274 2.25027V9.60699L6.03175 8.21135C5.77792 7.95751 5.36627 7.95751 5.11225 8.21135C4.85842 8.46518 4.85842 8.87682 5.11225 9.13084L7.61819 11.6362Z" fill="#151419" stroke="#151419" stroke-width="0.2"/>
</svg>
