<svg width="16" height="16" viewBox="0 0 16 16" fill="none" xmlns="http://www.w3.org/2000/svg">
<path fill-rule="evenodd" clip-rule="evenodd" d="M0 8C0 3.58173 3.58173 0 8 0C12.4183 0 16 3.58173 16 8C16 12.4183 12.4183 16 8 16C3.58173 16 0 12.4183 0 8ZM8.53333 4.13333C8.53333 3.83877 8.29456 3.6 8 3.6C7.70544 3.6 7.46667 3.83877 7.46667 4.13333V8C7.46667 8.14144 7.52285 8.27709 7.62288 8.37712L10.0229 10.7771C10.2311 10.9854 10.5689 10.9854 10.7771 10.7771C10.9854 10.5689 10.9854 10.2311 10.7771 10.0229L8.53333 7.77909V4.13333Z" fill="white"/>
</svg>
