<svg width="80" height="81" viewBox="0 0 80 81" fill="none" xmlns="http://www.w3.org/2000/svg">
<rect y="0.515442" width="80" height="80" rx="40" fill="#F6B1C6"/>
<path d="M58.1955 20.4365V28.3772C58.1955 28.6678 57.959 28.9018 57.6684 28.9018C57.3802 28.9018 57.1438 28.6678 57.1438 28.3772V21.6118L50.9889 23.4713L40.9082 26.316C40.8048 26.3406 40.6989 26.3554 40.593 26.3554C40.4871 26.3554 40.3812 26.3406 40.2777 26.316L30.1971 23.4713L23.8528 21.5601C23.3602 21.4123 23.0253 20.9591 23.0253 20.4468C23.0253 19.9345 23.3602 19.4814 23.8528 19.3336L40.2733 14.5653H40.2708C40.4851 14.4988 40.7142 14.4988 40.9285 14.5653L51.0041 17.41L57.4007 19.3212C57.8809 19.4813 58.2011 19.932 58.1962 20.4369L58.1955 20.4365ZM39.0631 55.9742L37.0017 54.2082H36.9992C36.0657 53.4127 34.6668 53.5211 33.8663 54.452L27.8444 61.4861C27.0489 62.4195 27.1573 63.8185 28.0882 64.619L30.1571 66.3849C30.2507 66.4686 30.3713 66.5154 30.497 66.5154H30.5364C30.6743 66.5105 30.8048 66.444 30.891 66.3381L39.1224 56.7177C39.216 56.6094 39.2603 56.4714 39.2455 56.3286C39.2381 56.1906 39.1715 56.0604 39.0631 55.9742ZM27.0487 60.8015L33.0977 53.7675C33.4696 53.3414 33.945 53.0187 34.477 52.8291V46.5756C34.5016 45.8983 34.2553 45.2407 33.7923 44.7482C33.3268 44.2531 32.6864 43.9674 32.0091 43.9502C30.4132 43.8788 28.6793 45.0807 28.4231 47.5683C28.263 48.9426 28.3369 50.3317 28.6447 51.6789C28.7925 52.2922 28.5265 52.9276 27.9896 53.2552C27.5118 53.5754 26.8813 53.531 26.4527 53.1517C25.8838 52.6395 25.4355 52.0089 25.1375 51.3045C23.7903 48.3687 24.4479 43.4231 24.9602 40.756V40.7585C25.3025 39.0246 24.172 37.3424 22.4381 37.0001C20.7042 36.6602 19.022 37.7882 18.6821 39.5221C17.6379 44.7756 16.4162 57.1053 26.4577 61.8537C26.5882 61.4694 26.7901 61.1143 27.0487 60.8015ZM25.9995 40.9352C25.5413 43.1469 25.3517 45.4079 25.433 47.6666L27.0289 44.0534C27.5929 42.7111 27.2013 41.1569 26.0709 40.2383C26.0659 40.4723 26.0413 40.7037 25.9995 40.9352ZM40.0877 56.3286C40.0729 56.4715 40.1173 56.6094 40.2109 56.7178L48.4422 66.3331C48.5284 66.439 48.659 66.5031 48.7969 66.5105H48.8609C48.989 66.5105 49.1097 66.4637 49.2033 66.3775L51.2721 64.6115C52.1908 63.8062 52.2869 62.4096 51.4889 61.486L45.467 54.452C44.6665 53.521 43.2675 53.4127 42.3341 54.2082L40.2726 55.9741H40.2701C40.1617 56.0603 40.0951 56.1907 40.0877 56.3286ZM52.8683 61.8062C62.9098 57.0847 61.6879 44.7628 60.6437 39.4747V39.4771C60.3039 37.7432 58.6217 36.6127 56.8878 36.9551C55.1539 37.295 54.0258 38.9771 54.3657 40.711C54.878 43.3907 55.5356 48.3239 54.1884 51.2596C53.8928 51.964 53.4446 52.5945 52.8757 53.1043C52.4471 53.4836 51.8141 53.5279 51.3388 53.2102C50.7994 52.8826 50.5359 52.2448 50.6812 51.6339C50.9989 50.2843 51.0826 48.8926 50.9299 47.5159C50.6738 45.0259 48.9596 43.8239 47.3439 43.8978V43.8954C46.6666 43.9126 46.0262 44.2008 45.5607 44.6934C45.0977 45.1884 44.8514 45.846 44.876 46.5233V52.7767C45.408 52.9639 45.8834 53.289 46.2553 53.7151L52.2723 60.7491H52.2698C52.5333 61.0619 52.7377 61.4195 52.8683 61.8062ZM53.2623 40.2382C52.1318 41.1569 51.7402 42.711 52.3043 44.0533L53.9002 47.6665C53.9815 45.408 53.7918 43.147 53.3337 40.9351C53.2919 40.7036 53.2672 40.4722 53.2623 40.2382ZM51.292 24.4754L41.1911 27.325C40.9966 27.3792 40.7946 27.4063 40.5926 27.4038C40.3882 27.4062 40.1838 27.3767 39.9892 27.32L29.9136 24.4827L27.5615 23.7734V32.3125V32.31C27.5664 33.4134 28.1575 34.4331 29.1131 34.9848C32.6105 36.9723 36.5683 38.0167 40.5929 38.0117C44.6173 38.0167 48.5701 36.9699 52.0676 34.9774C53.0257 34.4331 53.6168 33.4134 53.6168 32.31V23.7709L51.292 24.4754Z" fill="black"/>
</svg>
