<svg width="64" height="64" viewBox="0 0 64 64" fill="none" xmlns="http://www.w3.org/2000/svg">
<rect width="64" height="64" rx="32" fill="white"/>
<path d="M31.8927 35.2335H33.5032C33.7895 33.6945 34.9348 32.4777 36.4021 32.084C35.4 30.2587 33.7895 28.8272 31.8569 28.0398C30.5327 28.9703 28.8863 29.543 27.1327 29.543C25.379 29.543 23.7327 29.0061 22.4084 28.0398C19.0442 29.3998 16.6821 32.6566 16.6821 36.4861V40.2082C16.6821 41.0672 17.3979 41.783 18.2569 41.783H28.7074C28.6 41.5324 28.5642 41.2461 28.5642 40.9598V38.5977C28.5642 36.7366 30.0674 35.2335 31.8927 35.2335Z" fill="#151419"/>
<path d="M27.1327 27.4672C30.6042 27.4672 33.3958 24.6756 33.3958 21.2041C33.3958 17.7325 30.5685 14.9767 27.1327 14.9767C23.6611 14.9767 20.8695 17.7683 20.8695 21.2398C20.8695 24.7114 23.6611 27.4672 27.1327 27.4672Z" fill="#151419"/>
<path d="M39.48 45.183H38.1916C37.1895 45.183 36.3663 44.3956 36.3305 43.3935C34.5768 43.2861 32.9663 43.1788 31.4631 42.8925V47.4377C31.4631 48.2967 32.1431 48.9767 32.9663 48.9767H44.6695C45.5284 48.9767 46.2084 48.2967 46.2084 47.4377V42.9282C44.741 43.1788 43.0947 43.3219 41.341 43.3935C41.3052 44.3956 40.5179 45.183 39.48 45.183Z" fill="#151419"/>
<path d="M45.7789 37.0587H42.4147V35.9493C42.4147 34.7682 41.4484 33.7661 40.2316 33.7661H37.44C36.2589 33.7661 35.2568 34.7324 35.2568 35.9493V37.0587H31.8926C31.0337 37.0587 30.3895 37.7387 30.3895 38.5619V40.924C30.3895 41.1387 30.5326 41.3177 30.7474 41.3535C32.2147 41.6398 34.0758 41.8903 36.3663 41.9977C36.3663 40.9598 37.1895 40.1366 38.2274 40.1366H39.5158C40.5537 40.1366 41.3768 40.9598 41.3768 41.9977C43.6674 41.8903 45.5284 41.6398 46.96 41.3535C47.1747 41.3177 47.3179 41.1387 47.3179 40.924V38.5619C47.3179 37.7387 46.6379 37.0587 45.7789 37.0587ZM40.5537 36.9156H37.1179V35.9493C37.1179 35.7703 37.261 35.6272 37.44 35.6272H40.2316C40.4105 35.6272 40.5537 35.7703 40.5537 35.9493V36.9156Z" fill="#151419"/>
<path d="M39.48 43.823C39.7663 43.823 39.9811 43.6083 39.9811 43.3219V42.0335C39.9811 41.7472 39.7663 41.5325 39.48 41.5325H38.1916C37.9053 41.5325 37.6906 41.7472 37.6906 42.0335V43.3219C37.6906 43.6083 37.9053 43.823 38.1916 43.823H39.48Z" fill="#151419"/>
</svg>
