<svg width="13" height="16" viewBox="0 0 13 16" fill="none" xmlns="http://www.w3.org/2000/svg">
<path d="M12.9088 10.8633V2.53009C12.9088 1.55658 12.1105 0.758301 11.137 0.758301H1.77179C0.798279 0.758301 0 1.55658 0 2.53009V13.4724C0 14.4459 0.798279 15.2441 1.77179 15.2441H9.83246L12.9088 10.8633ZM6.4057 4.51605C6.4057 4.4187 6.48358 4.36029 6.56146 4.36029H10.475C10.5723 4.36029 10.6307 4.43817 10.6307 4.51605V5.19751C10.6307 5.27539 10.5529 5.35327 10.475 5.35327H6.58093C6.48358 5.35327 6.42517 5.27539 6.42517 5.19751V4.51605H6.4057ZM6.4057 7.90387C6.4057 7.82599 6.48358 7.74811 6.56146 7.74811H10.475C10.5723 7.74811 10.6307 7.82599 10.6307 7.90387V8.58533C10.6307 8.66321 10.5529 8.74109 10.475 8.74109H6.58093C6.48358 8.74109 6.42517 8.66321 6.42517 8.58533V7.90387H6.4057ZM5.70477 10.6102L3.83563 12.7714C3.71881 12.8882 3.52411 12.8882 3.40729 12.752L2.29749 11.3696C2.20013 11.2527 2.2196 11.097 2.31696 10.9996L2.57007 10.7465C2.68689 10.6492 2.84265 10.6492 2.95947 10.7465L3.60199 11.4085L5.02332 9.98718C5.14014 9.87036 5.31537 9.87036 5.41272 9.98718L5.66583 10.2403C5.78265 10.3376 5.80212 10.5129 5.70477 10.6102ZM5.70477 7.22241L3.83563 9.38361C3.71881 9.5199 3.52411 9.50043 3.40729 9.38361L2.29749 8.00122C2.20013 7.8844 2.2196 7.72864 2.31696 7.63129L2.57007 7.37817C2.68689 7.28082 2.84265 7.28082 2.95947 7.37817L3.60199 8.04016L5.02332 6.61884C5.14014 6.50201 5.31537 6.50201 5.41272 6.61884L5.66583 6.87195C5.78265 6.94983 5.80212 7.12506 5.70477 7.22241ZM5.70477 3.85407L3.83563 6.01526C3.71881 6.15155 3.52411 6.13208 3.40729 6.01526L2.29749 4.63287C2.20013 4.51605 2.2196 4.36029 2.31696 4.26294L2.57007 4.00983C2.68689 3.89301 2.84265 3.89301 2.95947 4.00983L3.60199 4.65234L5.02332 3.23102C5.14014 3.13367 5.31537 3.13367 5.41272 3.23102L5.66583 3.48413C5.78265 3.56201 5.80212 3.73724 5.70477 3.85407ZM6.4057 11.9537V11.2722C6.4057 11.1749 6.48358 11.1165 6.56146 11.1165H10.475C10.5723 11.1165 10.6307 11.1943 10.6307 11.2722V11.9537C10.6307 12.051 10.5529 12.1094 10.475 12.1094H6.58093C6.48358 12.1094 6.4057 12.051 6.4057 11.9537Z" fill="white"/>
</svg>
