<svg id="Group_15787" data-name="Group 15787" xmlns="http://www.w3.org/2000/svg" xmlns:xlink="http://www.w3.org/1999/xlink" width="63.798" height="50.942" viewBox="0 0 63.798 50.942">
  <defs>
    <clipPath id="clip-path">
      <rect id="Rectangle_1896" data-name="Rectangle 1896" width="63.798" height="50.942" fill="none"/>
    </clipPath>
    <clipPath id="clip-path-2">
      <path id="Path_4217" data-name="Path 4217" d="M18.144,14.249h.025l1.192,3.794H16.939Zm.931-1.809a5.373,5.373,0,0,1-1.177.576q-.272,1.071-.479,1.663l-2.072,6.153a1.127,1.127,0,0,1-1.126.87h-.078v.4c.621-.036,1.088-.053,1.4-.053.354,0,.876.017,1.567.053v-.4h-.144q-.971,0-.971-.47a10.049,10.049,0,0,1,.286-1.045l.414-1.395h2.939l.505,1.556a4.874,4.874,0,0,1,.258.966q0,.389-.8.388h-.142v.4q1.32-.055,1.942-.053t1.787.053v-.4H23.1a.835.835,0,0,1-.854-.537q-.325-.882-.48-1.366l-2.381-7.013c-.051-.141-.091-.253-.116-.334a.1.1,0,0,0-.092-.041.413.413,0,0,0-.1.027" transform="translate(-14.143 -12.413)" fill="none"/>
    </clipPath>
    <linearGradient id="linear-gradient" x1="-1.498" y1="2.593" x2="-1.382" y2="2.593" gradientUnits="objectBoundingBox">
      <stop offset="0" stop-color="#c94b27"/>
      <stop offset="1" stop-color="#91301f"/>
    </linearGradient>
    <clipPath id="clip-path-3">
      <path id="Path_4218" data-name="Path 4218" d="M22.585,13.793v2.89h-2.79v1.255h2.79v2.888H23.8V17.938h2.79V16.683H23.8v-2.89Z" transform="translate(-19.795 -13.793)" fill="none"/>
    </clipPath>
    <linearGradient id="linear-gradient-2" x1="-2.99" y1="3.26" x2="-2.832" y2="3.26" xlink:href="#linear-gradient"/>
    <clipPath id="clip-path-4">
      <path id="Path_4220" data-name="Path 4220" d="M35.061,19.621q.635,5.038,1.271,10.08a93.05,93.05,0,0,0,11.184-3.446q-2.375-1.756-4.642-3.639,1.406-3.093,2.686-6.23a87.493,87.493,0,0,1-10.5,3.236" transform="translate(-35.061 -16.385)" fill="none"/>
    </clipPath>
    <linearGradient id="linear-gradient-3" x1="-2.716" y1="1.549" x2="-2.634" y2="1.549" xlink:href="#linear-gradient"/>
    <clipPath id="clip-path-5">
      <path id="Path_4221" data-name="Path 4221" d="M35.538,22.31q2.289-.548,4.563-1.225-2.568-1.208-5.04-2.565.239,1.895.477,3.791" transform="translate(-35.061 -18.519)" fill="none"/>
    </clipPath>
    <linearGradient id="linear-gradient-4" x1="-8.254" y1="3.767" x2="-8.016" y2="3.767" xlink:href="#linear-gradient"/>
    <clipPath id="clip-path-6">
      <path id="Path_4222" data-name="Path 4222" d="M4.642,22.617Q2.373,24.5,0,26.254A92.967,92.967,0,0,0,11.184,29.7q.635-5.04,1.271-10.08a87.575,87.575,0,0,1-10.5-3.236q1.278,3.134,2.686,6.232" transform="translate(0 -16.385)" fill="none"/>
    </clipPath>
    <linearGradient id="linear-gradient-5" x1="0.152" y1="1.55" x2="0.234" y2="1.55" xlink:href="#linear-gradient"/>
    <clipPath id="clip-path-7">
      <path id="Path_4223" data-name="Path 4223" d="M5.062,21.084q2.276.675,4.563,1.225.239-1.9.479-3.791-2.473,1.358-5.042,2.565" transform="translate(-5.062 -18.519)" fill="none"/>
    </clipPath>
    <linearGradient id="linear-gradient-6" x1="-1.114" y1="3.822" x2="-0.876" y2="3.822" xlink:href="#linear-gradient"/>
    <clipPath id="clip-path-8">
      <path id="Path_4224" data-name="Path 4224" d="M5.557,20.211q-.389,2.5-.779,5t-.781,5a90.527,90.527,0,0,0,52.091,0q-.78-5-1.561-10a85.088,85.088,0,0,1-48.971,0" transform="translate(-3.997 -20.211)" fill="none"/>
    </clipPath>
    <linearGradient id="linear-gradient-7" x1="-0.177" y1="0.76" x2="-0.145" y2="0.76" xlink:href="#linear-gradient"/>
  </defs>
  <path id="Path_4211" data-name="Path 4211" d="M29.584,0,27.5,2.159,25.067.432l-1.8,2.713L20.348,1.863,19.11,4.893,16,4.238,15.364,7.46H12.189v3.054l-2.9.559.581,3.233L6.931,15.54l1.192,3.049L5.475,20.405,7.23,23.146,4.985,25.471l2.084,2.158L5.4,30.147l2.62,1.859L6.783,35.034l2.926,1.283-.633,3.222,3.113.655v3.289h2.948l.54,3,3.122-.6,1.193,3.049,2.943-1.236,1.754,2.741,2.646-1.816,2.246,2.326,2.085-2.159L34.1,50.51,35.9,47.8l2.924,1.283,1.239-3.029,3.113.655.631-3.222h3.176V40.428l2.9-.561-.583-3.231L52.236,35.4l-1.191-3.049,2.648-1.816L51.939,27.8l2.245-2.324L52.1,23.313l1.665-2.518-2.618-1.859,1.237-3.028L49.46,14.625l.631-3.223-3.112-.653V7.46H44.031l-.542-3-3.121.6L39.175,2.015,36.232,3.251,34.477.509,31.83,2.326Z" transform="translate(2.315 0)" fill="#e5c690"/>
  <g id="Group_13798" data-name="Group 13798">
    <g id="Group_13797" data-name="Group 13797" clip-path="url(#clip-path)">
      <path id="Path_4212" data-name="Path 4212" d="M28.661,1.985c11.983,0,21.7,10.057,21.7,22.461s-9.713,22.463-21.7,22.463S6.968,36.854,6.968,24.446,16.681,1.985,28.661,1.985" transform="translate(3.236 1.025)" fill="#d0b26e" fill-rule="evenodd"/>
      <path id="Path_4213" data-name="Path 4213" d="M26.595,6.5a15.455,15.455,0,0,1,15.18,15.717,15.455,15.455,0,0,1-15.18,15.714A15.454,15.454,0,0,1,11.418,22.215,15.455,15.455,0,0,1,26.595,6.5" transform="translate(5.302 3.355)" fill="#a12f22" fill-rule="evenodd"/>
      <path id="Path_4214" data-name="Path 4214" d="M26.595,6.5a15.455,15.455,0,0,1,15.18,15.717,15.455,15.455,0,0,1-15.18,15.714A15.454,15.454,0,0,1,11.418,22.215,15.455,15.455,0,0,1,26.595,6.5Z" transform="translate(5.302 3.355)" fill="none" stroke="#dfa126" stroke-width="0.29"/>
      <ellipse id="Ellipse_138" data-name="Ellipse 138" cx="13.726" cy="14.212" rx="13.726" ry="14.212" transform="translate(18.172 11.358)" fill="none" stroke="#ffe200" stroke-width="0.29" stroke-dasharray="0.29 0.29 0.29 0.29"/>
      <path id="Path_4215" data-name="Path 4215" d="M25.735,8.349A12.7,12.7,0,0,1,38.2,21.258,12.692,12.692,0,0,1,25.735,34.166,12.691,12.691,0,0,1,13.269,21.258,12.693,12.693,0,0,1,25.735,8.349" transform="translate(6.162 4.31)" fill="#e3ce9a" fill-rule="evenodd"/>
      <path id="Path_4216" data-name="Path 4216" d="M10.2,23.77l.026-.907.452-.141a1.2,1.2,0,0,1,.281-.073c.1,0,.107.159.105.25l0,.045.116,0c0-.2,0-.4,0-.6s.021-.373.034-.552l-.117,0v.026a.256.256,0,0,1-.161.258c-.119.049-.264.092-.4.135l-2.041.673-.1.033c-.01.008-.01.015-.012.027a.153.153,0,0,0,.007.033,2.332,2.332,0,0,1,.155.368,3.457,3.457,0,0,1,.476.162l1.753.694a.369.369,0,0,1,.242.358l0,.023.117,0c0-.144-.007-.288,0-.432.007-.161.018-.326.031-.484l-.117,0v.044c0,.132-.028.3-.144.3a1.384,1.384,0,0,1-.3-.1Zm-.193-.831-.022.747-1.079-.4v-.009Zm-.2-4.088a4.4,4.4,0,0,1-.64-.089A4.757,4.757,0,0,0,8.8,19.7a1.433,1.433,0,0,0,1.075,1.779,1.375,1.375,0,0,0,1.7-1.271,2.484,2.484,0,0,0-.012-.934,4.309,4.309,0,0,1-.6-.217l-.035.108a.822.822,0,0,1,.492.923,1.137,1.137,0,0,1-1.467.835c-.665-.126-1.1-.558-.98-1.2a.8.8,0,0,1,.829-.752Zm1.09-3.087a4.53,4.53,0,0,1-.612-.218,4.9,4.9,0,0,0-.537.852,1.454,1.454,0,0,0,.716,1.962,1.355,1.355,0,0,0,1.905-.9,2.413,2.413,0,0,0,.167-.916,4.216,4.216,0,0,1-.545-.332l-.056.1a.833.833,0,0,1,.306,1.007,1.126,1.126,0,0,1-1.6.519,1.049,1.049,0,0,1-.731-1.38.791.791,0,0,1,.956-.569ZM10.96,14.2c.023-.05.04-.1.1-.206a.519.519,0,0,1,.77-.212.54.54,0,0,1,.224.846l-.094.17Zm1.674,1.592c.123.074.116.226.042.355l-.034.062.1.059c.1-.174.174-.343.268-.509.11-.2.233-.391.344-.588l-.1-.059-.035.061c-.089.161-.168.28-.426.124l-.716-.428.127-.229a10.406,10.406,0,0,0,1.485-.073c.06-.108.108-.224.168-.332s.139-.218.2-.332l-.1-.062a.435.435,0,0,1-.39.218l-1.186.079a.762.762,0,0,0-.321-.831c-.474-.285-.805.033-1.049.47-.1.185-.182.359-.3.567s-.25.417-.312.529l.1.059.035-.062c.06-.108.148-.24.391-.094ZM14.167,13.8c.135-.179.4-.566.618-.849s.5-.638.65-.84c-.142-.159-.274-.326-.4-.5l-.089.07c.277.376.177.563-.108.94-.151.2-.288.387-.488.227l-.712-.572.286-.381c.164-.217.29-.13.486,0l.053-.109c-.119-.086-.239-.176-.353-.27s-.237-.194-.351-.3l-.07.1c.149.152.223.274.081.465l-.283.375-.8-.643.331-.44c.247-.331.436-.241.646-.1l.047-.115a5.778,5.778,0,0,1-.472-.368c-.161.215-.4.553-.595.819s-.458.584-.6.776l.091.073.032-.044c.086-.114.192-.221.35-.092l1.6,1.284c.158.129.083.261,0,.376l-.034.042Zm.4-4.523c.06-.064.119-.132.187-.193.469-.417,1.028-.566,1.693.233a1.1,1.1,0,0,1-.012,1.572c-.209.188-.327.244-.5.032Zm1.024,2.558c.075-.068.272-.265.472-.444s.409-.352.545-.462a1.437,1.437,0,0,0,.2-2.03,1.317,1.317,0,0,0-2.037-.018c-.126.112-.274.265-.461.432s-.391.324-.48.4l.076.089.041-.038c.1-.092.231-.174.36-.018l1.319,1.591c.13.158.034.273-.073.365l-.041.038Zm2.282-1.992c.123-.092.3-.243.452-.356s.356-.243.505-.355l-.067-.1-.044.033c-.113.083-.243.156-.36-.014l-1.18-1.7c-.117-.17-.009-.273.1-.358l.044-.032-.069-.1c-.145.111-.327.264-.483.381s-.351.24-.473.331l.069.1.042-.032c.114-.085.245-.156.362.014l1.18,1.7c.117.17.009.274-.1.359l-.044.032Zm.879-3.669.925,1.91c.138.281.051.35-.139.447l-.066.035.051.108c.135-.071.37-.211.576-.318.189-.1.436-.208.571-.276l-.051-.108-.066.035c-.167.083-.3.115-.435-.161l-.924-1.9.568-.294c.23-.12.351.082.422.211l.083-.1c-.047-.1-.092-.191-.132-.293s-.072-.2-.1-.308l-.089.027c.044.112-.04.159-.132.208l-1.784.926c-.092.049-.179.1-.258,0l-.082.044a2.121,2.121,0,0,1,.126.314c.04.109.073.218.105.326l.105-.055c-.076-.288-.1-.356.163-.491ZM21.4,7.7c.209-.076.638-.247.965-.365s.754-.256.987-.341c-.034-.211-.059-.428-.079-.644l-.11.011c.035.47-.148.57-.586.728-.231.085-.444.162-.527-.085l-.3-.878.438-.161c.252-.089.312.053.411.273l.1-.062c-.056-.141-.108-.284-.157-.428s-.1-.3-.138-.446l-.11.038c.048.214.044.359-.174.438l-.435.158-.334-.992.508-.182c.382-.138.492.042.592.281l.1-.068a6.1,6.1,0,0,1-.2-.576c-.247.089-.624.243-.928.352s-.691.233-.914.314l.037.114.051-.018c.133-.049.278-.079.343.117l.669,1.979c.066.2-.066.265-.2.314l-.051.018ZM24,4.141c.082-.024.168-.052.253-.068.611-.117,1.166.045,1.349,1.084a1.071,1.071,0,0,1-.773,1.352c-.274.053-.4.038-.451-.235Zm-.362,2.741c.1-.02.366-.088.625-.135s.526-.092.693-.117a1.4,1.4,0,0,0,1.164-1.65A1.346,1.346,0,0,0,24.368,3.9c-.163.032-.366.086-.609.132s-.5.077-.609.1l.019.118.054-.009c.136-.027.284-.033.321.17l.366,2.064c.037.2-.1.252-.242.276l-.053.009Zm6.351-.368.135.009L31.212,4.13c.056-.12.13-.252.246-.243l.045,0,.009-.118c-.114-.009-.227,0-.344-.012s-.252-.036-.381-.045l-.009.118.047,0c.161.012.23.042.224.129a1.067,1.067,0,0,1-.073.214l-.718,1.63-.39-1.195.268-.528c.114-.22.165-.291.357-.277l.054,0,.01-.118c-.117-.009-.234,0-.35-.012s-.245-.036-.369-.045c-.141-.011-.283-.006-.423-.017-.182-.015-.363-.045-.542-.059l-.01.12c.1.006.2.032.227.126L29.489,5l-.368.752L28.6,4.169a1.468,1.468,0,0,1-.1-.422c.006-.076.083-.086.171-.08l.035,0,.009-.121c-.123-.009-.324-.009-.485-.02-.186-.017-.41-.052-.555-.062l-.009.121.057,0c.209.017.247.188.309.382l.8,2.446.13.008.6-1.207ZM29.8,4.406h-.009l-.119-.365a.536.536,0,0,1-.05-.2c.007-.079.094-.094.2-.083.127.008.214.036.206.136a.645.645,0,0,1-.063.162Zm1.555,2.282c.146.033.372.073.556.115s.409.117.59.161l.026-.117-.053-.014c-.135-.032-.274-.086-.227-.288L32.706,4.5c.047-.2.195-.188.329-.156l.053.014.026-.117c-.177-.042-.406-.082-.595-.127s-.406-.114-.554-.149l-.028.117.054.011c.136.035.274.086.228.291l-.458,2.042c-.047.2-.192.188-.329.153l-.051-.012Zm3.235-1.753-.767,1.983c-.113.293-.22.27-.417.19l-.069-.029L33.3,7.19c.139.058.4.147.612.237.192.08.436.2.578.258l.041-.112-.067-.027c-.173-.073-.286-.158-.174-.443l.763-1.977.589.246c.24.1.174.324.127.465l.124,0c.037-.1.078-.2.123-.3s.1-.191.155-.284l-.079-.052c-.051.108-.142.074-.239.035L34,4.476c-.1-.041-.189-.074-.173-.2l-.086-.036a2.9,2.9,0,0,1-.144.306c-.053.1-.11.2-.165.3l.108.045c.157-.249.193-.311.464-.2Zm2.037,2.311,1.215.725-.483.864c-.1.185-.249.112-.37.041l-.062-.038-.06.1c.148.086.369.2.551.309s.365.235.5.315l.06-.1-.048-.027c-.12-.073-.237-.167-.138-.346L38.8,7.275c.1-.18.239-.121.359-.05l.048.029.057-.1c-.135-.08-.343-.185-.513-.288s-.388-.249-.535-.338l-.057.1.062.038c.122.073.256.167.152.353l-.425.76L36.736,7.05l.423-.757c.1-.186.25-.114.372-.042l.063.038.059-.1c-.148-.089-.369-.2-.551-.311s-.365-.235-.5-.315l-.057.1.045.029c.12.071.237.165.138.346L35.72,7.851c-.1.182-.239.121-.359.052l-.045-.029-.06.1c.135.08.343.185.514.288s.387.25.533.34l.059-.106L36.3,8.462c-.122-.073-.256-.167-.151-.355Zm5.5,3.6a3.783,3.783,0,0,1,.423-.526,2.277,2.277,0,0,1-.265-.368,2.294,2.294,0,0,0-.353-.45,1.382,1.382,0,0,0-2.059-.086,1.473,1.473,0,0,0,.1,2.17,3.824,3.824,0,0,0,.892.65l.048-.053-.028-.1.4-.44a.175.175,0,0,1,.287,0l.038.036.079-.086c-.13-.12-.259-.233-.384-.359-.141-.136-.275-.28-.41-.425l-.079.086.038.035c.1.1.183.24.075.358l-.435.472a.857.857,0,0,1-.363-.253,1.217,1.217,0,0,1,.16-1.732,1,1,0,0,1,1.543-.126.85.85,0,0,1,.2,1.122Zm1.416.934a2.033,2.033,0,0,1,.141.176.56.56,0,0,1-.13.816.506.506,0,0,1-.838-.136l-.11-.161Zm-2.091.922c-.117.086-.246.015-.328-.1l-.042-.059-.092.07c.111.162.228.3.338.462.127.185.246.382.375.567l.092-.068-.04-.059c-.1-.149-.174-.274.066-.453l.672-.5.148.215a11.444,11.444,0,0,0-.548,1.43c.07.1.155.2.226.3s.132.22.208.328l.092-.07a.466.466,0,0,1-.029-.455l.417-1.152a.713.713,0,0,0,.867.041c.447-.332.3-.775.018-1.186-.12-.171-.242-.317-.375-.512s-.267-.409-.337-.514l-.1.071.04.058c.072.1.151.238-.076.409Zm2.3,2.5.392.811-.332.349a1.475,1.475,0,0,1-.215.2c-.085.042-.167-.088-.206-.17l-.02-.041-.1.055c.1.179.189.355.274.528s.154.337.226.5l.1-.055-.009-.021a.258.258,0,0,1,.022-.306c.082-.1.19-.211.29-.315l1.486-1.6c.022-.026.048-.053.07-.079a.029.029,0,0,0,0-.029.069.069,0,0,0-.021-.026,1.926,1.926,0,0,1-.308-.249,3.013,3.013,0,0,1-.492.091l-1.863.252a.352.352,0,0,1-.376-.194l-.007-.021-.1.053c.067.126.139.249.2.381s.133.293.2.438l.1-.055-.018-.039c-.059-.117-.113-.276-.009-.329a1.349,1.349,0,0,1,.306-.062Zm.549.635-.324-.667L45.124,15l0,.006Zm2.172,1.848a2.148,2.148,0,0,1,.089.259c.167.616.062,1.2-.92,1.486a1.026,1.026,0,0,1-1.372-.672c-.075-.277-.075-.412.186-.487Zm-2.668-.121c.026.1.114.371.186.632s.138.532.174.7a1.356,1.356,0,0,0,1.694,1.051,1.407,1.407,0,0,0,.877-1.9c-.047-.167-.117-.371-.183-.616s-.122-.5-.152-.622l-.113.032.015.055c.038.139.06.29-.135.347l-1.948.566c-.195.056-.252-.085-.29-.224l-.015-.053Zm.778,3.008c.026.226.1.7.139,1.055s.082.816.111,1.07c.206.009.417.032.624.056l.015-.114c-.451-.064-.507-.27-.562-.746-.031-.256-.057-.485.193-.517L46,21.271l.057.476c.032.274-.117.3-.344.356l.038.117c.145-.024.288-.047.435-.065s.3-.035.45-.045l-.012-.12c-.211,0-.347-.032-.376-.27l-.056-.473,1.006-.129.064.553c.05.417-.145.49-.392.54l.045.117c.167-.033.419-.068.586-.082-.032-.27-.1-.682-.136-1.016s-.072-.748-.1-.99l-.114.017.006.055c.018.141.016.294-.183.32l-2.011.253c-.2.026-.237-.121-.252-.265l-.007-.055Z" transform="translate(3.893 1.791)" fill="#7e1617" fill-rule="evenodd"/>
    </g>
  </g>
  <g id="Group_13800" data-name="Group 13800" transform="translate(24.365 18.821)">
    <g id="Group_13799" data-name="Group 13799" clip-path="url(#clip-path-2)">
      <rect id="Rectangle_1897" data-name="Rectangle 1897" width="12.961" height="12.618" transform="translate(-4.054 7.269) rotate(-60)" fill="url(#linear-gradient)"/>
    </g>
  </g>
  <g id="Group_13802" data-name="Group 13802" transform="translate(32.641 20.913)">
    <g id="Group_13801" data-name="Group 13801" clip-path="url(#clip-path-3)">
      <rect id="Rectangle_1898" data-name="Rectangle 1898" width="9.525" height="9.361" transform="translate(-2.942 5.275) rotate(-60)" fill="url(#linear-gradient-2)"/>
    </g>
  </g>
  <g id="Group_13806" data-name="Group 13806" transform="translate(51.343 24.844)">
    <g id="Group_13805" data-name="Group 13805" clip-path="url(#clip-path-4)">
      <rect id="Rectangle_1900" data-name="Rectangle 1900" width="18.217" height="18.217" transform="translate(-6.43 6.657) rotate(-45)" fill="url(#linear-gradient-3)"/>
    </g>
  </g>
  <g id="Group_13808" data-name="Group 13808" transform="translate(51.343 28.079)">
    <g id="Group_13807" data-name="Group 13807" clip-path="url(#clip-path-5)">
      <rect id="Rectangle_1901" data-name="Rectangle 1901" width="6.262" height="6.262" transform="translate(-1.83 1.895) rotate(-45)" fill="url(#linear-gradient-4)"/>
    </g>
  </g>
  <g id="Group_13810" data-name="Group 13810" transform="translate(0 24.844)">
    <g id="Group_13809" data-name="Group 13809" clip-path="url(#clip-path-6)">
      <rect id="Rectangle_1902" data-name="Rectangle 1902" width="18.217" height="18.217" transform="translate(-6.43 6.657) rotate(-45)" fill="url(#linear-gradient-5)"/>
    </g>
  </g>
  <g id="Group_13812" data-name="Group 13812" transform="translate(7.413 28.079)">
    <g id="Group_13811" data-name="Group 13811" clip-path="url(#clip-path-7)">
      <rect id="Rectangle_1903" data-name="Rectangle 1903" width="6.263" height="6.263" transform="translate(-1.83 1.895) rotate(-45)" fill="url(#linear-gradient-6)"/>
    </g>
  </g>
  <g id="Group_13814" data-name="Group 13814" transform="translate(5.853 30.645)">
    <g id="Group_13813" data-name="Group 13813" clip-path="url(#clip-path-8)">
      <rect id="Rectangle_1904" data-name="Rectangle 1904" width="47.985" height="47.985" transform="translate(-7.295 7.553) rotate(-45)" fill="url(#linear-gradient-7)"/>
    </g>
  </g>
  <g id="Group_13816" data-name="Group 13816">
    <g id="Group_13815" data-name="Group 13815" clip-path="url(#clip-path)">
      <path id="Path_4225" data-name="Path 4225" d="M15.327,23.544c-.272-.023-.536-.009-.807-.035-.344-.029-.7-.1-1.038-.127l-.023.279.117.012a.832.832,0,0,1,.753.916l-.322,3.944c-.062.751-.288,1.174-.914,1.119l-.127-.012-.022.282c.409.036.826.033,1.236.071.387.033.775.1,1.163.139l.023-.282-.155-.011c-.7-.062-.827-.356-.76-1.174l.316-3.859L18.985,30.6l.343.029a6.555,6.555,0,0,1,.025-.951l.35-4.264c.092-1.113.524-1.151.9-1.117l.135.011.023-.279c-.372-.033-.747-.029-1.117-.062-.425-.038-.839-.112-1.262-.149l-.023.282.2.017a.764.764,0,0,1,.716.949l-.29,3.515-.018.017Zm6.714,4.635,2.06.033.337,1.1a2.886,2.886,0,0,1,.171.678c0,.235-.356.268-.565.265l-.1,0,0,.282c.467-.012.92-.024,1.363-.017s.843.032,1.254.058l0-.284H26.5a.574.574,0,0,1-.592-.387c-.113-.282-.22-.634-.321-.963L23.989,24c-.025-.076-.051-.161-.076-.237-.019-.029-.037-.029-.066-.029a.221.221,0,0,0-.072.02,4.793,4.793,0,0,1-.833.391,8.078,8.078,0,0,1-.351,1.16L21.075,29.6a.829.829,0,0,1-.8.6l-.056,0,0,.282c.329-.012.656-.026.981-.021.366,0,.737.03,1.1.055l0-.284-.1,0c-.3,0-.681-.056-.677-.34a3.858,3.858,0,0,1,.206-.728Zm1.877-.5-1.7-.026.884-2.649h.016Zm4.56.491,2.062-.079.391,1.078a3.173,3.173,0,0,1,.206.669c.007.235-.344.285-.554.3l-.1,0,.009.284c.464-.036.917-.073,1.362-.091s.843-.012,1.254-.009l-.012-.282-.054,0a.572.572,0,0,1-.612-.353c-.129-.276-.246-.62-.368-.945l-1.845-4.85c-.031-.074-.062-.159-.091-.233a.064.064,0,0,0-.064-.026.321.321,0,0,0-.072.021,4.481,4.481,0,0,1-.811.437,8.28,8.28,0,0,1-.294,1.177l-1.3,4.37a.828.828,0,0,1-.767.64l-.056,0,.013.282c.325-.033.65-.064.977-.076.363-.014.737-.009,1.1,0l-.013-.282-.1,0c-.3.012-.684-.021-.693-.3a3.924,3.924,0,0,1,.171-.741Zm1.851-.6-1.7.064.751-2.691H29.4Zm8.247-2.494a11.191,11.191,0,0,1-.205-1.56,10.332,10.332,0,0,0-2.292-.265,3.325,3.325,0,0,0-3.223,3.631,3.239,3.239,0,0,0,3.84,3.184,5.157,5.157,0,0,0,2.038-.606,10.719,10.719,0,0,1,.1-1.539l-.256-.014a1.889,1.889,0,0,1-1.716,1.73c-1.709.155-2.611-1.36-2.743-2.923-.138-1.641.539-2.919,2.024-3.052a1.876,1.876,0,0,1,2.166,1.475Z" transform="translate(6.011 11.997)" fill="#fff" fill-rule="evenodd"/>
    </g>
  </g>
</svg>
