<svg width="24" height="25" viewBox="0 0 24 25" fill="none" xmlns="http://www.w3.org/2000/svg">
<path fill-rule="evenodd" clip-rule="evenodd" d="M11.9971 0.515442C5.38097 0.515442 0 5.89446 0 12.5106C0 19.1267 5.38097 24.5154 11.9971 24.5154C18.6132 24.5154 24 19.1267 24 12.5106C24 5.89446 18.6132 0.515442 11.9971 0.515442ZM12.0051 15.8585C11.8269 15.8578 11.6503 15.8923 11.4855 15.9602C11.3207 16.028 11.1709 16.1279 11.0449 16.2539C10.9189 16.3799 10.8191 16.5296 10.7512 16.6944C10.6833 16.8592 10.6488 17.0358 10.6495 17.2141C10.6511 17.572 10.7948 17.9147 11.049 18.1667C11.3033 18.4187 11.6471 18.5594 12.0051 18.5579C12.361 18.5563 12.7019 18.4142 12.9536 18.1625C13.2052 17.9109 13.3473 17.57 13.3489 17.2141C13.3504 16.8561 13.2097 16.5122 12.9577 16.258C12.7057 16.0038 12.363 15.8601 12.0051 15.8585Z" fill="black"/>
<path d="M11.4405 4.60356C11.6207 4.54475 11.8138 4.51478 12.0087 4.51539C12.4002 4.5166 12.7752 4.64099 13.0518 4.86139C13.3284 5.08178 13.484 5.38027 13.4848 5.69165V12.8689C13.4855 13.0236 13.448 13.177 13.3742 13.3202C13.3004 13.4635 13.1919 13.5937 13.0548 13.7036C12.9178 13.8135 12.7548 13.9008 12.5753 13.9606C12.3958 14.0204 12.2033 14.0514 12.0087 14.052C11.8131 14.0526 11.6193 14.0225 11.4385 13.9632C11.2576 13.904 11.0933 13.8168 10.955 13.7069C10.8167 13.5969 10.7072 13.4662 10.6327 13.3224C10.5582 13.1786 10.5202 13.0244 10.521 12.8689V5.69165C10.5214 5.53668 10.5602 5.3833 10.6352 5.24027C10.7102 5.09725 10.8199 4.96739 10.9581 4.85814C11.0963 4.74888 11.2602 4.66237 11.4405 4.60356Z" fill="white"/>
<path d="M11.2387 15.454C11.4829 15.374 11.7446 15.3333 12.0087 15.3342C12.5391 15.3361 13.0468 15.5055 13.4202 15.805C13.7937 16.1046 14.0022 16.5098 14 16.9317C13.9976 17.3511 13.787 17.7528 13.4141 18.0494C13.0412 18.346 12.5361 18.5135 12.0087 18.5154C11.4783 18.5171 10.9687 18.3513 10.5921 18.0543C10.2154 17.7573 10.0024 17.3535 10 16.9317C9.99892 16.7216 10.0501 16.5135 10.1507 16.3193C10.2512 16.1251 10.3992 15.9486 10.5859 15.8001C10.7726 15.6516 10.9945 15.534 11.2387 15.454Z" fill="white"/>
</svg>
