<svg width="80" height="81" viewBox="0 0 80 81" fill="none" xmlns="http://www.w3.org/2000/svg">
<rect y="0.515442" width="80" height="80" rx="40" fill="#F6B1C6"/>
<path d="M19 20.9189V56.9593C19 60.9457 21.0339 61.3932 21.8881 61.3932H57.3183C58.9047 61.3932 60.2064 60.0915 60.2064 58.5051V20.9189C60.2064 19.3325 58.9047 18.0308 57.3183 18.0308H21.8881C20.3017 18.0308 19 19.3325 19 20.9189ZM41.6574 48.3356C42.2676 47.6848 43.0811 47.4001 44.0167 47.4001C44.993 47.4001 45.8065 47.7255 46.376 48.3356C46.9862 48.9458 47.2709 49.8814 47.2709 51.0611C47.2709 52.2407 46.9455 53.1356 46.376 53.7864C45.7659 54.4373 44.9523 54.7627 44.0167 54.7627C43.5286 54.7627 43.0811 54.6814 42.6744 54.5186C42.2676 54.3559 41.9015 54.1119 41.6168 53.7864C41.332 53.461 41.0879 53.0949 40.9252 52.6068C40.7625 52.1593 40.6812 51.6305 40.6812 51.0611C40.7218 49.8814 41.0473 48.9458 41.6574 48.3356ZM42.7675 41.1357C43.5809 41.1357 44.0932 42.0118 43.6943 42.7208L37.4065 53.8953C37.2181 54.2301 36.8638 54.4373 36.4796 54.4373C35.6662 54.4373 35.1539 53.5612 35.5528 52.8522L41.8406 41.6777C42.029 41.3429 42.3833 41.1357 42.7675 41.1357ZM35.2304 48.2136C34.7422 48.2136 34.2948 48.1323 33.888 47.9696C33.4812 47.8068 33.1151 47.5628 32.8304 47.2374C32.5456 46.9119 32.3016 46.5458 32.1389 46.0577C31.9762 45.6102 31.8948 45.0814 31.8948 44.512C31.8948 43.3323 32.2202 42.3967 32.7897 41.7865C33.3999 41.1357 34.2134 40.851 35.149 40.851C36.1253 40.851 36.9388 41.1764 37.5083 41.7865C38.1185 42.3967 38.4032 43.3323 38.4032 44.512C38.4032 45.6916 38.0778 46.5865 37.5083 47.2374C37.0202 47.8882 36.2066 48.2136 35.2304 48.2136ZM51.894 25.1087C52.9353 25.1087 53.7794 25.9528 53.7794 26.994V33.6369C53.7794 34.6781 52.9353 35.5222 51.894 35.5222H27.3531C26.3118 35.5222 25.4677 34.6781 25.4677 33.6369V26.994C25.4677 25.9528 26.3118 25.1087 27.3531 25.1087H51.894Z" fill="#151419"/>
</svg>
