<svg width="21" height="20" viewBox="0 0 21 20" fill="none" xmlns="http://www.w3.org/2000/svg">
<path d="M17.6929 1.20422C15.0955 1.58203 12.6161 2.38486 10.4438 3.89608V17.3317C12.7106 16.1275 15.1191 15.3246 17.6929 15.183V1.20422ZM1.89595 2.2668L1.11673 2.17235V16.4108C4.28084 16.5289 7.27966 17.4262 10.1132 18.7957C12.9703 17.4262 15.9455 16.5289 19.1096 16.4108V2.17235L18.354 2.2668V15.5136C18.354 15.6788 18.2124 15.8441 18.0235 15.8441C15.1899 15.915 12.7578 16.8359 10.3021 18.1818C10.0896 18.3235 9.85345 18.1346 9.66455 18.0401C7.3505 16.765 4.87116 15.915 2.22653 15.8441C2.03763 15.8441 1.89595 15.6788 1.89595 15.5136V2.2668ZM2.55711 1.20422V15.183C5.1309 15.3246 7.5394 16.1275 9.78261 17.3317V3.89608C7.63385 2.38486 5.1309 1.58203 2.55711 1.20422Z" fill="black"/>
</svg>
