<svg width="60" height="42" viewBox="0 0 60 42" fill="none" xmlns="http://www.w3.org/2000/svg">
<path d="M16.9514 2.47802C16.5514 3.67802 16.1514 7.94468 16.1514 12.2114V19.9447L9.48475 23.0114C1.21808 26.878 -1.18192 29.4114 1.61808 31.1447C3.35142 32.2114 12.0181 31.678 17.6181 30.2114C19.0848 29.8114 20.5514 31.4114 22.2848 35.278C24.0181 39.278 25.6181 41.0114 27.4848 41.0114C29.7514 41.0114 30.1514 39.9447 30.5514 33.278C30.8181 29.1447 31.4848 25.678 32.1514 25.678C34.6848 25.678 58.0181 15.0114 58.9514 13.4114C61.6181 9.14468 54.4181 8.47802 40.1514 11.678C27.6181 14.478 27.6181 14.478 24.5514 7.01135C21.7514 0.344685 18.5514 -1.52198 16.9514 2.47802Z" fill="#F6B1C6"/>
</svg>
