<svg width="14" height="13" viewBox="0 0 14 13" fill="none" xmlns="http://www.w3.org/2000/svg">
<path d="M6.08663 1.04906C6.43899 0.258571 7.56101 0.258571 7.91337 1.04906L8.97525 3.43129C9.12058 3.75732 9.42867 3.98117 9.78366 4.01863L12.3774 4.29239C13.2381 4.38323 13.5848 5.45033 12.9419 6.02972L11.0044 7.77578C10.7393 8.01475 10.6216 8.37694 10.6956 8.72612L11.2368 11.2775C11.4164 12.1242 10.5086 12.7837 9.75895 12.3513L7.49962 11.0482C7.19041 10.8698 6.80959 10.8698 6.50038 11.0482L4.24106 12.3513C3.49135 12.7837 2.58362 12.1242 2.76319 11.2775L3.30436 8.72612C3.37842 8.37694 3.26074 8.01475 2.99557 7.77578L1.05807 6.02972C0.415159 5.45033 0.761881 4.38323 1.62256 4.29239L4.21634 4.01863C4.57133 3.98117 4.87942 3.75732 5.02475 3.43129L6.08663 1.04906Z" fill="white"/>
</svg>
