<svg width="47" height="47" viewBox="0 0 47 47" fill="none" xmlns="http://www.w3.org/2000/svg">
<g clip-path="url(#clip0_5_2062)">
<path d="M11.5912 34.9145C12.0485 34.7723 12.4442 34.6532 12.8366 34.5225C13.0811 34.4414 13.3055 34.2777 13.5849 34.3356C13.6564 34.3505 13.7212 34.3554 13.7927 34.3968C14.2001 34.6416 14.6191 34.8665 15.0265 35.1064C15.4073 35.3297 15.7881 35.5546 16.1772 35.7614C16.4532 35.9086 16.7408 36.0525 16.9986 36.2113C17.258 36.3701 17.5307 36.5206 17.7934 36.6662C18.1758 36.8779 18.54 37.126 18.949 37.3014C19.2367 37.4238 19.5027 37.6338 19.7804 37.7992C19.9334 37.8902 20.0946 37.9646 20.2626 38.0325C20.4172 38.0953 20.5453 38.2376 20.7066 38.3219C21.2137 38.5849 21.7059 38.8744 22.208 39.1457C22.4292 39.2647 22.6387 39.4136 22.8632 39.5327C22.9596 39.584 23.0461 39.5989 23.1309 39.5493C23.4717 39.3491 23.8159 39.1523 24.1452 38.9306C24.5509 38.6594 25.0048 38.4741 25.4022 38.1946C25.9177 37.8307 26.4963 37.5809 27.0101 37.2104C27.2928 37.0069 27.6287 36.8746 27.928 36.6827C28.2822 36.4561 28.638 36.2279 29.0021 36.0211C29.5292 35.7201 30.0414 35.3942 30.5701 35.0998C30.7796 34.984 30.9858 34.8583 31.192 34.7342C31.4714 34.5655 31.7407 34.5854 32.0417 34.7028C32.4324 34.855 32.8415 34.9542 33.2422 35.0799C33.3054 35.0998 33.3603 35.1428 33.4351 35.1841C33.2505 35.338 33.0394 35.4124 32.8481 35.5199C32.3776 35.7846 31.8754 35.9847 31.3915 36.2245C31.0291 36.4032 30.6749 36.6281 30.2742 36.7406C30.1295 36.7803 29.9915 36.8729 29.8551 36.9457C29.0071 37.4006 28.1192 37.7645 27.2612 38.1995C26.5412 38.5651 25.8179 38.924 25.088 39.2681C24.802 39.402 24.5043 39.5129 24.2366 39.6816C23.9007 39.8933 23.4867 39.9413 23.1824 40.2175C23.076 40.3134 22.9713 40.2291 22.8748 40.1861C22.4192 39.9777 21.9619 39.7726 21.5147 39.5493C21.0541 39.3193 20.5885 39.096 20.1246 38.8727C19.4029 38.527 18.6713 38.2012 17.9513 37.8538C17.677 37.7215 17.4093 37.5726 17.1233 37.4668C16.671 37.298 16.232 37.0896 15.8014 36.8779C15.3557 36.6596 14.9118 36.4363 14.4612 36.2245C13.7844 35.9053 13.1093 35.5795 12.4226 35.2801C12.1649 35.1676 11.9055 35.065 11.5912 34.9145Z" fill="#F05A2C"/>
<path d="M45.8311 35.6853C45.1211 35.6522 44.4094 35.6589 43.6994 35.6555C41.9635 35.644 40.2275 35.6324 38.4916 35.6307C38.0925 35.6307 37.7018 35.5894 37.3044 35.7912C36.9884 35.95 36.6426 36.0806 36.3167 36.2312C35.9642 36.3933 35.6133 36.5736 35.2558 36.7175C34.5791 36.9904 33.919 37.3014 33.2522 37.5941C32.7367 37.8191 32.2046 38.0176 31.7041 38.2855C31.325 38.4873 30.8994 38.5965 30.5219 38.8016C30.0464 39.0596 29.5392 39.2333 29.057 39.4765C28.3919 39.8106 27.6836 40.0422 27.0168 40.378C26.7258 40.5252 26.4149 40.6409 26.1139 40.7733C25.655 40.9734 25.1877 41.1603 24.7338 41.3721C24.2449 41.6003 23.7411 41.7922 23.2622 42.0436C23.1758 42.0883 23.0694 42.0899 22.9729 42.0006C22.8299 41.8683 22.6304 41.7889 22.4674 41.736C22.0334 41.5954 21.6327 41.382 21.2187 41.205C20.3939 40.8543 19.5892 40.4573 18.7744 40.0835C18.3188 39.8735 17.8566 39.6766 17.401 39.4666C16.7674 39.1754 16.1389 38.8744 15.5054 38.5849C15.1429 38.4195 14.7754 38.269 14.4113 38.1052C13.9191 37.8836 13.4286 37.6603 12.9397 37.432C12.4442 37.2021 11.957 36.9457 11.4515 36.7406C11.0525 36.5785 10.67 36.3833 10.2726 36.2163C10.0083 36.1055 9.76217 35.9301 9.49945 35.8392C9.14694 35.7184 8.82602 35.5365 8.48682 35.3975C8.24572 35.2983 8.00628 35.1858 7.73026 35.1808C6.16725 35.1461 4.60424 35.2089 3.04123 35.1296C2.13834 35.0832 1.23213 35.0832 0.327581 35.07C0.232803 35.07 0.124723 35.0435 -0.00164795 35.1279C0.259408 35.2371 0.445639 35.4008 0.688404 35.4901C1.2022 35.682 1.66113 36.0046 2.16661 36.2279C2.66212 36.4445 3.12769 36.7357 3.61821 36.9639C4.09543 37.1856 4.54105 37.4668 5.02326 37.6801C5.65677 37.9613 6.26202 38.307 6.89055 38.6048C7.25138 38.7768 7.59225 39.0034 7.96304 39.1605C8.47019 39.3756 8.9208 39.7047 9.43294 39.9049C9.96004 40.1116 10.4323 40.4276 10.9477 40.6591C11.4382 40.8791 11.9121 41.1405 12.391 41.3869C12.6354 41.511 12.8682 41.6714 13.1243 41.7558C13.3804 41.8402 13.5583 42.0453 13.836 42.1098C14.1569 42.1842 14.4379 42.4158 14.7455 42.563C15.236 42.7979 15.7083 43.0708 16.2054 43.2958C16.7142 43.5257 17.2031 43.8085 17.7052 44.0566C18.0145 44.2088 18.3205 44.3643 18.6231 44.5314C19.0405 44.7629 19.4894 44.9383 19.9068 45.1682C20.3158 45.3931 20.7348 45.5982 21.1472 45.81C21.6244 46.0548 22.1133 46.2797 22.5888 46.5328C22.8133 46.6519 23.0677 46.852 23.362 46.589C23.4285 46.5295 23.5832 46.4451 23.7228 46.4799C23.8475 46.4286 23.9556 46.3426 24.0787 46.288C24.1202 46.2599 24.1518 46.2235 24.2017 46.1987C24.644 45.9737 25.1129 45.8133 25.5552 45.585C26.1621 45.2724 26.794 45.0127 27.4158 44.7315C27.9313 44.4983 28.4484 44.2684 28.9705 44.05C29.2632 43.9276 29.5375 43.7539 29.8319 43.6266C30.3407 43.4049 30.8528 43.1882 31.3483 42.9401C31.6958 42.7664 32.0483 42.606 32.4008 42.4489C32.8498 42.2487 33.2938 42.0337 33.756 41.8584C34.1318 41.7161 34.481 41.4961 34.8534 41.3324C35.3938 41.0942 35.9293 40.8461 36.463 40.5946C36.8238 40.4243 37.1946 40.2737 37.5604 40.115C37.7849 40.0174 38.036 39.9446 38.2289 39.8271C38.46 39.6865 38.7144 39.6055 38.9455 39.4699C39.3463 39.235 39.8035 39.1159 40.2176 38.9108C40.7014 38.6709 41.1919 38.4493 41.6758 38.2111C41.9768 38.0622 42.3126 37.9779 42.597 37.8042C42.9944 37.5627 43.4334 37.4254 43.8424 37.2137C44.2498 37.0036 44.6888 36.8581 45.1011 36.648C45.4719 36.4578 45.866 36.3205 46.2468 36.1584C46.4945 36.0525 46.7406 35.8987 46.9917 35.7564C46.6026 35.7019 46.2102 35.7118 45.8228 35.6936L45.8311 35.6853ZM36.9718 38.7636C36.7773 38.8248 36.6143 38.9902 36.4164 39.0712C35.8494 39.3045 35.3257 39.6303 34.7587 39.8635C34.5009 39.9694 34.2582 40.11 34.0121 40.244C33.9539 40.2754 33.9156 40.3531 33.8641 40.244C33.8608 40.239 33.8159 40.2407 33.8076 40.2522C33.6197 40.55 33.2755 40.5963 33.0044 40.7468C32.7268 40.9006 32.4341 41.0412 32.1431 41.1769C31.6227 41.42 31.1272 41.7227 30.5967 41.9394C30.0247 42.1726 29.4794 42.4654 28.9306 42.7383C28.1957 43.1055 27.4607 43.476 26.7208 43.8333C26.2369 44.0666 25.7614 44.3147 25.2759 44.5413C25.0148 44.662 24.7571 44.791 24.501 44.9201C24.1551 45.0954 23.8159 45.2806 23.4668 45.4494C23.3071 45.5271 23.1658 45.4014 23.0378 45.3419C22.6753 45.1748 22.3161 44.9912 21.9736 44.7894C21.5429 44.5347 21.074 44.3692 20.6484 44.1029C20.2443 43.8499 19.7854 43.6911 19.3664 43.4562C18.9473 43.2213 18.5134 43.0195 18.0844 42.8028C17.5223 42.5167 16.9603 42.2289 16.3966 41.946C16.0026 41.7475 15.6002 41.5672 15.2177 41.3439C14.6474 41.0115 14.0272 40.7799 13.4602 40.4375C13.0013 40.1596 12.4958 39.9694 12.0235 39.708C11.5463 39.445 11.0541 39.2052 10.5653 38.9604C10.2377 38.7967 9.91348 38.6114 9.56596 38.4824C9.48116 38.4509 9.42296 38.3914 9.37141 38.3186C9.92013 38.5237 10.4755 38.7057 11.0242 38.9009C11.4216 39.0415 11.8257 39.1688 12.2214 39.3144C12.7236 39.4996 13.2108 39.7345 13.693 39.9727C13.8742 40.062 14.0671 40.1166 14.245 40.2192C14.5892 40.416 14.9417 40.6013 15.3059 40.7501C15.8014 40.9519 16.2836 41.1835 16.7658 41.4151C17.5706 41.8038 18.3953 42.1445 19.1851 42.568C19.7338 42.8624 20.3208 43.0807 20.8811 43.352L22.3145 44.0616C22.6154 44.2287 22.9563 44.318 23.2722 44.4602C23.4052 44.5198 23.505 44.4635 23.6064 44.4189C24.3015 44.1129 25.0032 43.8218 25.6899 43.5025C26.3118 43.213 26.9436 42.9484 27.5622 42.6474C28.1026 42.3844 28.6496 42.1263 29.2067 41.903C29.9765 41.5954 30.7131 41.21 31.4763 40.8891C31.8821 40.7187 32.2728 40.5169 32.6752 40.3482C33.169 40.1414 33.6513 39.9098 34.1401 39.6948C34.609 39.4881 35.0763 39.273 35.5452 39.0679C35.906 38.9091 36.2685 38.7437 36.6576 38.6478C36.9851 38.5667 37.306 38.4509 37.6253 38.3385C37.6918 38.3153 37.7467 38.2872 37.8647 38.3434C37.5471 38.5088 37.2778 38.6709 36.9685 38.7685L36.9718 38.7636Z" fill="#F05A2C"/>
<path d="M37.6918 14.9531C37.6086 14.48 37.5305 14.0053 37.3975 13.5388C37.1963 12.8358 36.9851 12.1395 36.6891 11.4729C36.4563 10.9469 36.2319 10.4176 35.9409 9.91805C35.7247 9.54588 35.5102 9.17206 35.2658 8.82305C34.9648 8.39299 34.6622 7.96127 34.3097 7.56595C33.9921 7.21197 33.6828 6.84807 33.3436 6.51726C32.77 5.96149 32.163 5.44541 31.5096 4.98889C31.0756 4.68619 30.6549 4.36199 30.171 4.14365C29.6539 3.91043 29.1734 3.59946 28.6297 3.42247C28.1624 3.2703 27.7151 3.03046 27.2396 2.93452C26.7491 2.83527 26.2685 2.68971 25.768 2.61528C25.1046 2.51604 24.4395 2.47303 23.7743 2.41183C23.1857 2.35724 22.5971 2.46641 22.0068 2.46641C21.8804 2.46641 21.7424 2.43664 21.6277 2.47634C21.3417 2.57558 21.0474 2.64505 20.7514 2.63844C20.502 2.63182 20.2526 2.70956 20.0531 2.78234C19.7272 2.90144 19.3863 2.97918 19.0587 3.09C18.53 3.26864 17.9829 3.42413 17.4957 3.68547C17.0817 3.90877 16.6344 4.06756 16.2453 4.35868C15.9743 4.56048 15.6633 4.72754 15.379 4.92107C15.0398 5.15099 14.7156 5.40406 14.3913 5.65548C14.0721 5.90194 13.7412 6.15171 13.4784 6.44117C13.1459 6.81003 12.7302 7.10611 12.4708 7.53617C12.3212 7.78594 12.0684 7.93315 11.9304 8.19119C11.7857 8.46246 11.5729 8.69403 11.4133 8.95372C11.1057 9.4516 10.7748 9.93624 10.5303 10.4738C10.3075 10.9667 10.0764 11.4563 9.88519 11.9641C9.66238 12.5563 9.47615 13.1584 9.32317 13.7737C9.15856 14.432 9.02387 15.0937 8.99893 15.7752C8.97731 16.3938 8.95902 17.0124 8.94572 17.631C8.93076 18.334 8.92078 19.0403 9.00724 19.7367C9.08207 20.3404 9.20678 20.9408 9.36973 21.528C9.69231 22.6876 10.088 23.8206 10.6783 24.8693C10.9959 25.4333 11.2919 26.0106 11.6943 26.525C12.2497 27.2346 12.7834 27.9558 13.4518 28.5662C13.8758 28.9532 14.2965 29.3419 14.7488 29.6976C15.4172 30.2236 16.1322 30.6619 16.8805 31.0589C17.7667 31.527 18.6829 31.8842 19.644 32.1555C20.3058 32.3424 20.9726 32.4896 21.646 32.5707C22.1382 32.6286 22.637 32.6865 23.1375 32.6848C23.4884 32.6848 23.8409 32.7096 24.19 32.6567C24.5708 32.5426 24.9682 32.5922 25.359 32.5244C25.9542 32.4202 26.5445 32.3093 27.1282 32.1489C27.7185 31.9885 28.2988 31.8032 28.8608 31.5617C29.6606 31.216 30.4238 30.7975 31.1621 30.3294C31.7324 29.9672 32.2512 29.5354 32.7633 29.0988C33.3619 28.5877 33.909 28.0154 34.4078 27.4033C34.7204 27.0196 35.0047 26.611 35.2924 26.2058C35.6416 25.7096 35.9076 25.1687 36.2086 24.646C36.4946 24.1498 36.6825 23.6039 36.8986 23.073C37.0583 22.6793 37.178 22.2724 37.296 21.8671C37.4091 21.4768 37.474 21.0699 37.5887 20.6845C37.7483 20.1469 37.7816 19.5928 37.8215 19.0502C37.883 18.1818 37.8398 17.3068 37.8331 16.4335C37.8298 15.9389 37.7749 15.4443 37.6885 14.9597L37.6918 14.9531ZM35.5069 12.2156C35.5202 12.1957 35.5867 12.1858 35.6083 12.2007C35.6665 12.2437 35.6399 12.3148 35.6299 12.3694C35.5701 12.7068 35.5185 13.0459 35.5485 13.3883C35.6 14.0036 35.8195 14.5495 36.2368 14.9994C36.3516 15.1234 36.4148 15.2922 36.5744 15.3815C35.9608 15.4146 35.3606 15.5039 34.7537 15.5287C34.3878 15.5436 34.0104 15.5601 33.6496 15.661C33.5747 15.6825 33.5032 15.6842 33.4284 15.6875C32.9778 15.7073 32.5355 15.79 32.0899 15.8529C31.8056 15.8926 31.5179 15.9108 31.2319 15.9571C30.8461 16.02 30.4587 16.0944 30.0729 16.1275C29.5708 16.1705 29.0836 16.3061 28.5814 16.3359C28.3254 16.3508 28.0726 16.4219 27.8182 16.4599C27.4607 16.5145 27.1032 16.5625 26.7457 16.6105C26.7058 16.6154 26.6576 16.6287 26.6144 16.5542C27.0201 16.3971 27.3959 16.1887 27.8016 16.0448C28.0992 15.9389 28.3736 15.7702 28.6662 15.6478C29.3646 15.355 30.033 14.9944 30.7281 14.695C31.4198 14.3973 32.0799 14.0384 32.755 13.7092C33.4883 13.3503 34.2116 12.9715 34.9149 12.5563C35.1095 12.4422 35.3656 12.4323 35.5052 12.2156H35.5069ZM33.5082 9.06124C33.5498 9.1671 33.5814 9.27627 33.6147 9.38544C33.7843 9.94451 34.0919 10.4159 34.4693 10.851C34.6822 11.0974 34.9183 11.3108 35.1893 11.5357C35.023 11.5589 34.8967 11.6251 34.7736 11.6962C34.7088 11.7326 34.6556 11.764 34.599 11.6962C34.5824 11.6747 34.5591 11.6598 34.5491 11.6763L32.775 12.4786C32.3892 12.6423 32.0167 12.8392 31.6243 12.9847C31.0906 13.1816 30.6 13.471 30.0796 13.696C29.6539 13.8812 29.2266 14.088 28.8109 14.3096C28.2572 14.6041 27.6852 14.8588 27.1248 15.1416C26.7806 15.3137 26.4464 15.5039 26.1056 15.6842C26.0906 15.6924 26.064 15.6776 26.0307 15.6693C26.0839 15.5039 26.2436 15.441 26.3483 15.36C26.6842 15.1036 26.9769 14.7926 27.3161 14.5429C27.6852 14.2716 28.0061 13.9424 28.3603 13.6546C28.6297 13.4346 28.889 13.1865 29.1451 12.9434C29.5109 12.596 29.9017 12.2768 30.2691 11.9327C30.5967 11.6251 30.9376 11.3323 31.2652 11.0246C31.4813 10.8212 31.7091 10.6177 31.9419 10.4275C32.1481 10.2604 32.3393 10.0487 32.5222 9.84692C32.7766 9.56738 33.0676 9.32754 33.3021 9.02815C33.3719 8.93718 33.4617 8.95372 33.5066 9.06785L33.5082 9.06124ZM32.3077 7.85045C32.5239 7.94142 32.7883 8.00924 33.0476 7.97285C33.1624 7.95631 33.2887 7.97616 33.332 8.09194C33.3785 8.21931 33.2904 8.34667 33.1956 8.40622C32.6187 8.76681 32.1049 9.21341 31.5877 9.64843C31.197 9.9776 30.7846 10.2819 30.4221 10.6492C30.1511 10.9221 29.8485 11.1636 29.5492 11.4034C29.1451 11.7276 28.7893 12.113 28.3902 12.4372C27.8299 12.8921 27.346 13.4313 26.7757 13.8746C26.6011 14.0102 26.468 14.2137 26.2851 14.3477C25.9875 14.5677 25.7913 14.8985 25.4421 15.1152C27.3925 12.2817 29.3679 9.51611 31.0008 6.49741C31.2435 7.15573 31.7074 7.59572 32.3094 7.85045H32.3077ZM26.9569 6.34358C27.055 5.73984 27.1581 5.13114 27.1448 4.51417C27.1415 4.37192 27.2047 4.27929 27.3094 4.21974C27.3859 4.17673 27.489 4.19327 27.5522 4.2644C27.6486 4.37357 27.7367 4.49266 27.8199 4.61341C28.1574 5.10302 28.5681 5.48511 29.1401 5.68195C29.619 5.84736 30.1012 5.88871 30.5984 5.84239C30.6566 5.83743 30.7081 5.84239 30.7297 5.8854C30.7597 5.94826 30.6799 5.94164 30.6549 5.97307C30.339 6.37666 30.0264 6.78357 29.7105 7.18551C29.3297 7.6685 28.9788 8.1763 28.6164 8.67253C28.4268 8.93222 28.2688 9.23326 28.0793 9.49626C27.7783 9.91309 27.5472 10.3828 27.1747 10.7484C27.0816 10.8394 27.0783 10.9899 27.0001 11.1057C26.641 11.6333 26.2802 12.1626 25.9326 12.6969C25.63 13.1617 25.349 13.648 25.0613 14.1293C24.9682 14.2848 24.8668 14.4353 24.7704 14.5875C24.7554 14.5809 24.7404 14.5726 24.7255 14.566C24.7936 14.3576 24.8618 14.1475 24.9283 13.9391C25.1012 13.4049 25.2526 12.8623 25.4488 12.3363C25.6716 11.7425 25.8262 11.1255 25.9958 10.5185C26.2303 9.68482 26.4564 8.84455 26.6227 7.98774C26.7291 7.44024 26.8688 6.89439 26.9586 6.34358H26.9569ZM23.618 3.59284C23.7028 3.52668 23.7527 3.63916 23.796 3.67224C24.4212 4.16185 25.1079 4.47447 25.9077 4.48605C26.054 4.4877 26.0723 4.57702 26.0191 4.68288C25.8877 4.95084 25.8013 5.23865 25.6849 5.51323C25.5452 5.84239 25.4754 6.20133 25.369 6.54538C25.0597 7.54114 24.8385 8.5617 24.6057 9.57731C24.4677 10.1827 24.3214 10.7864 24.2316 11.4001C24.1352 12.0584 23.9656 12.7035 23.909 13.3685C23.8874 13.6282 23.8226 13.8845 23.7777 14.1426C23.7577 14.1393 23.7394 14.1376 23.7195 14.1343C23.786 13.433 23.7677 12.73 23.7926 12.0287C23.8542 10.2869 23.8126 8.54351 23.7743 6.80176C23.7561 6.00119 23.6945 5.20226 23.643 4.405C23.6314 4.20982 23.5848 4.01629 23.5549 3.82276C23.5416 3.73675 23.5482 3.64577 23.618 3.59284ZM19.9034 4.11719C20.2908 4.39673 20.7531 4.38846 21.1887 4.41823C21.5113 4.43973 21.8489 4.37688 22.1714 4.26275C22.4325 4.17177 22.652 4.01463 22.8814 3.87404C22.9895 3.80787 23.0161 3.81614 23.0111 3.95343C23.0028 4.22801 23.0078 4.5059 22.9596 4.77386C22.8781 5.23369 22.9097 5.69849 22.8881 6.15998C22.7966 8.06713 22.8299 9.97594 22.8415 11.8848C22.8449 12.4091 22.8515 12.9351 22.8831 13.4578C22.9014 13.7588 22.933 14.0566 22.8914 14.3626C21.9802 10.9155 21.064 7.47166 19.782 4.10726C19.8336 4.11057 19.8785 4.09734 19.9017 4.11553L19.9034 4.11719ZM16.3002 5.69683C16.3251 5.61248 16.5529 5.66872 16.6876 5.67699C17.3062 5.71834 17.8915 5.61082 18.4368 5.30482C18.7029 5.1543 18.919 4.93927 19.1352 4.72589C19.2533 4.6101 19.3131 4.59687 19.3497 4.78213C19.5476 5.79608 19.8003 6.79845 20.0514 7.79917C20.1961 8.37479 20.364 8.9438 20.507 9.51942C20.5752 9.79565 20.635 10.0884 20.7248 10.3431C20.8429 10.6789 20.9327 11.0246 21.0474 11.3604C21.1954 11.7987 21.3317 12.242 21.4481 12.6919C21.5446 13.0625 21.6975 13.4164 21.7923 13.7869C21.8538 14.0284 21.9503 14.2633 21.9752 14.5214C21.932 14.4651 21.8838 14.4138 21.8489 14.3526C21.4814 13.7142 21.1222 13.0724 20.7481 12.4372C20.5569 12.113 20.3823 11.7673 20.1678 11.4712C19.7305 10.8725 19.3796 10.2207 18.9656 9.60708C18.5682 9.01658 18.1625 8.43103 17.7884 7.82564C17.6786 7.647 17.4541 7.52129 17.4691 7.2649C17.075 6.92912 16.8572 6.44779 16.5246 6.06239C16.4282 5.94991 16.2653 5.81924 16.3018 5.69518L16.3002 5.69683ZM13.683 8.19946C13.7029 8.13495 13.7611 8.19615 13.7744 8.18953C14.3132 7.95466 14.8735 7.76609 15.2875 7.30129C15.502 7.0598 15.6999 6.81169 15.8396 6.51891C15.9044 6.38328 15.9527 6.40478 16.0125 6.5156C16.252 6.95724 16.4847 7.40385 16.7342 7.84052C17.0434 8.37975 17.3693 8.90906 17.6853 9.44498C17.7185 9.50122 17.7568 9.55746 17.7584 9.63024C17.7601 9.72618 17.7734 9.79069 17.8964 9.837C18.0145 9.88166 18.0195 10.0686 18.0993 10.1844C18.3604 10.5681 18.5898 10.975 18.8392 11.3654C19.1768 11.8914 19.5243 12.4124 19.8585 12.9417C20.1828 13.4594 20.5486 13.9474 20.8479 14.4833C20.9526 14.6702 21.1239 14.8174 21.2203 15.0143C21.2037 15.0275 21.1871 15.0407 21.1704 15.0556C20.8495 14.7232 20.5403 14.3791 20.206 14.0615C19.9716 13.8382 19.7405 13.6133 19.5043 13.3916C18.9357 12.8557 18.3421 12.3462 17.7983 11.7805C17.667 11.6433 17.499 11.544 17.371 11.3968C17.1964 11.1967 16.9836 11.0312 16.7857 10.8592C16.5629 10.6673 16.3368 10.4755 16.1123 10.2803C15.4522 9.70964 14.7887 9.14229 14.1236 8.57824C14.0022 8.47404 13.8675 8.38802 13.7412 8.28878C13.7146 8.26728 13.6763 8.22262 13.683 8.20111V8.19946ZM12.7618 10.2422C13.0295 9.90978 13.2041 9.49791 13.2207 9.04304C13.2257 8.92229 13.2008 8.74696 13.3055 8.71388C13.402 8.68245 13.5034 8.82636 13.5649 8.92891C13.6813 9.12574 13.8858 9.22499 14.0305 9.39371C14.4794 9.91474 14.9882 10.3746 15.4854 10.846C15.8579 11.2016 16.217 11.5705 16.6011 11.9129C16.9902 12.2586 17.361 12.6241 17.7518 12.9698C18.091 13.2692 18.4069 13.6033 18.7378 13.9093C19.1252 14.2666 19.5376 14.6041 19.9417 14.9465C20.1695 15.14 20.3823 15.3517 20.5868 15.575C19.1219 14.7645 17.637 13.9987 16.1505 13.2394C14.6258 12.462 13.086 11.7193 11.5047 11.0577C12.0002 10.884 12.4442 10.6359 12.7618 10.2422ZM10.6002 14.5627C10.8978 14.2302 11.119 13.8481 11.2786 13.4264C11.4432 12.993 11.4815 12.5414 11.5164 12.0865C11.5214 12.032 11.4781 11.9559 11.5496 11.9228C11.6062 11.8963 11.6361 11.9658 11.6793 11.984C11.9886 12.1196 12.2646 12.3264 12.544 12.5034C12.9164 12.7399 13.3138 12.9351 13.688 13.1667C14.1003 13.4214 14.5493 13.6282 14.9849 13.8498C15.5935 14.1608 16.1871 14.5032 16.8057 14.791C17.1831 14.9663 17.529 15.2045 17.928 15.3385C18.1176 15.4013 18.2789 15.57 18.4767 15.6379C18.9257 15.79 19.3081 16.0878 19.7554 16.2366C19.8569 16.2697 19.9017 16.3888 20.0265 16.3822C19.807 16.4533 19.6274 16.3293 19.4312 16.2945C19.2599 16.2648 19.0936 16.1705 18.9224 16.1606C18.5449 16.139 18.1941 15.9935 17.8249 15.9339C17.5922 15.8959 17.3627 15.8413 17.1349 15.7801C16.789 15.6858 16.4315 15.6461 16.089 15.5386C15.8945 15.4774 15.6816 15.4741 15.4804 15.4476C15.0265 15.3881 14.5792 15.2922 14.1319 15.2128C13.5732 15.1135 13.0095 15.0391 12.4509 14.9812C11.8689 14.92 11.2836 14.8174 10.6916 14.8621C10.6102 14.8687 10.4904 14.9068 10.4489 14.8108C10.3973 14.6868 10.527 14.6421 10.5952 14.566L10.6002 14.5627ZM10.6418 16.3475C10.6284 16.2449 10.6035 16.1341 10.68 16.0745C10.7448 16.0249 10.8446 16.058 10.9344 16.0894C11.3651 16.2333 11.8007 16.3557 12.2513 16.4335C12.6088 16.4947 12.978 16.5245 13.3188 16.675C13.3521 16.6899 13.392 16.6882 13.4286 16.6882C13.964 16.6882 14.4794 16.8453 15.0099 16.8966C15.4472 16.9396 15.8845 17.024 16.3235 17.0786C16.9054 17.1497 17.4874 17.201 18.0677 17.2704C18.387 17.3085 18.7112 17.2919 19.0188 17.3548C19.3913 17.4325 19.7621 17.4177 20.1462 17.4392C20.1129 17.5202 20.063 17.5252 20.0215 17.5202C19.6157 17.4739 19.2183 17.5798 18.8243 17.6376C18.2622 17.7187 17.6936 17.7435 17.1332 17.8709C16.8522 17.9337 16.5529 17.9784 16.2553 17.99C15.9759 17.9999 15.6966 18.0594 15.4189 18.1008C15.0714 18.1521 14.7222 18.1885 14.3797 18.2629C13.954 18.3555 13.525 18.4266 13.0977 18.5011C12.7285 18.5639 12.3611 18.6284 11.9969 18.7145C11.6627 18.7922 11.3168 18.812 10.9859 18.9113C10.695 18.999 10.4006 19.075 10.1196 19.1528C10.7814 18.3191 10.7798 17.3449 10.6434 16.3475H10.6418ZM10.9111 19.826C11.2171 19.8111 11.5263 19.8541 11.829 19.783C12.0352 19.7334 12.243 19.7483 12.4509 19.7284C12.8283 19.692 13.2024 19.6374 13.5766 19.5779C13.6497 19.5663 13.7212 19.5481 13.796 19.5481C14.1984 19.5531 14.5825 19.4274 14.9766 19.386C15.3457 19.348 15.7132 19.295 16.0774 19.2338C16.6876 19.1296 17.2995 19.0403 17.9081 18.9262C18.2074 18.8699 18.52 18.8352 18.8243 18.7905C19.1784 18.7393 19.5326 18.6681 19.8785 18.5788C20.0032 18.5457 20.1162 18.5408 20.2459 18.5838C19.9915 18.6913 19.7355 18.7938 19.4844 18.9063C19.1219 19.0684 18.7694 19.2504 18.4036 19.4009C18.2041 19.4836 18.0178 19.601 17.8017 19.649C17.6736 19.6771 17.5855 19.7962 17.4508 19.8525C16.9736 20.0493 16.5163 20.2958 16.0524 20.524C15.655 20.7192 15.256 20.9127 14.8602 21.1096C14.4728 21.3031 14.087 21.4966 13.7029 21.6951C13.1742 21.9697 12.652 22.2625 12.115 22.5188C11.9154 22.6131 11.7591 22.7719 11.553 22.8513C11.4449 22.8943 11.4083 22.8778 11.3933 22.7719C11.37 22.6214 11.3468 22.4676 11.3451 22.3187C11.3285 21.5479 11.0591 20.8648 10.6916 20.2081C10.532 19.9236 10.5819 19.8425 10.9128 19.826H10.9111ZM13.1392 25.8684C13.1343 25.4366 12.9464 25.0876 12.6936 24.7568C12.5406 24.5567 12.3827 24.3334 12.1815 24.2209C11.9504 24.0919 11.7209 23.9331 11.4582 23.8686C11.2586 23.8189 11.2703 23.7528 11.41 23.6271C11.5147 23.5328 11.6378 23.4914 11.7608 23.4534C12.2247 23.3078 12.657 23.0779 13.1193 22.9191C13.4053 22.8215 13.6846 22.6594 13.9673 22.5288C14.664 22.2079 15.3607 21.8853 16.0557 21.5611C16.39 21.4056 16.7225 21.2469 17.0518 21.0831C17.4608 20.8813 17.8665 20.6729 18.2739 20.4661C18.7212 20.2395 19.1685 20.0096 19.6174 19.783C19.9367 19.6209 20.2559 19.4604 20.5752 19.2983C20.5885 19.3149 20.6018 19.3298 20.6151 19.3463C18.0228 21.4189 15.5686 23.6519 13.2041 26.0156C13.1775 25.956 13.1409 25.9114 13.1409 25.8667L13.1392 25.8684ZM16.0724 28.7349C16.0524 28.7779 16.0458 28.8474 15.9726 28.8341C15.9144 28.8242 15.9244 28.7663 15.9078 28.7283C15.5835 27.9889 15.0614 27.443 14.3448 27.104C14.0305 26.9551 13.7013 26.8376 13.3255 26.7946C16.1322 24.7088 18.6912 22.3782 21.2386 20.0294C20.8844 20.5075 20.5951 21.0252 20.2692 21.5132C19.8685 22.1136 19.4777 22.7273 19.1086 23.3508C18.6912 24.0538 18.2207 24.7254 17.8399 25.4449C17.4841 26.1165 17.0651 26.75 16.7358 27.4381C16.6228 27.673 16.4997 27.9111 16.3417 28.1278C16.2154 28.3015 16.1605 28.5314 16.0707 28.7349H16.0724ZM19.5991 29.6479C19.5393 29.8381 19.5326 30.0482 19.511 30.25C19.501 30.3344 19.4927 30.4386 19.4312 30.4733C19.3414 30.5246 19.2915 30.4072 19.2449 30.3542C18.9274 29.9936 18.515 29.7703 18.0926 29.59C17.9347 29.5222 17.7252 29.4958 17.5406 29.4577C17.1964 29.3866 16.8605 29.3651 16.5147 29.3982C16.4349 29.4064 16.4216 29.3568 16.4748 29.2625C16.5546 29.1219 16.7092 29.0574 16.7924 28.9086C16.9287 28.6654 17.1 28.4438 17.2646 28.2205C17.7751 27.5291 18.2107 26.7831 18.7079 26.0834C18.939 25.7575 19.102 25.392 19.3281 25.0645C19.5975 24.6741 19.7987 24.2391 20.0747 23.8586C20.3607 23.4666 20.5918 23.0382 20.8312 22.623C21.237 21.9184 21.6859 21.2386 22.0351 20.4992C22.0417 20.4843 22.07 20.4777 22.1082 20.4579C22.0135 20.787 21.937 21.1029 21.8339 21.4106C21.6743 21.882 21.518 22.3534 21.3899 22.8364C21.2486 23.374 21.079 23.9033 20.9277 24.4376C20.7814 24.9503 20.645 25.4664 20.502 25.9792C20.384 26.401 20.2809 26.8277 20.1645 27.2512C20.088 27.5291 20.0215 27.8202 19.9516 28.103C19.8236 28.6174 19.7604 29.1451 19.6008 29.6512L19.5991 29.6479ZM22.913 31.1151C22.8498 31.1531 22.7917 31.1151 22.7318 31.0737C22.1615 30.6801 21.5196 30.6271 20.8578 30.6768C20.665 30.6917 20.5403 30.8703 20.3474 30.905C20.2592 30.9216 20.1595 30.9563 20.0763 31.0258C20.0364 31.0589 19.9417 31.0704 19.8868 31.0159C19.8336 30.9629 19.8835 30.8984 19.9034 30.8471C20.0398 30.4667 20.1927 30.0912 20.3158 29.7058C20.4987 29.1302 20.7082 28.5645 20.8628 27.979C20.9776 27.5439 21.1605 27.1255 21.2636 26.6871C21.4115 26.0602 21.626 25.4532 21.784 24.8279C21.947 24.1828 22.1082 23.5344 22.2978 22.8943C22.5106 22.1764 22.6786 21.4453 22.8498 20.7159C22.8532 20.6994 22.8814 20.6878 22.928 20.6497C22.8781 21.0781 22.8881 21.4784 22.8715 21.8754C22.8432 22.5321 22.8282 23.1887 22.8299 23.8454C22.8332 25.6599 22.8282 27.4745 22.8449 29.2873C22.8498 29.8266 22.9197 30.3641 22.9579 30.9034C22.9629 30.9778 22.9928 31.0655 22.913 31.1134V31.1151ZM23.1841 19.3794C22.9396 19.3629 22.7468 19.2454 22.5406 19.1429C22.228 18.9874 21.9968 18.7277 21.8405 18.4349C21.641 18.0594 21.5612 17.6343 21.6477 17.196C21.7175 16.8404 21.8588 16.5145 22.1016 16.2548C22.3976 15.9389 22.7734 15.7553 23.2007 15.6908C23.6347 15.6246 24.0387 15.7454 24.3896 15.9852C24.7022 16.2002 24.92 16.5145 25.0663 16.8801C25.1528 17.0984 25.1827 17.3151 25.1744 17.545C25.1827 18.0346 25.0098 18.4548 24.6872 18.812C24.6473 18.8551 24.6157 18.9791 24.5143 18.8683C24.4977 18.8501 24.4578 18.8997 24.4661 18.9229C24.5243 19.0965 24.3613 19.1164 24.2865 19.1528C23.9406 19.3215 23.5765 19.4059 23.1841 19.3794ZM26.9004 31.0936C26.8721 31.1399 26.8189 31.13 26.7856 31.0886C26.5711 30.8273 26.2269 30.7959 25.9526 30.6999C25.6367 30.5891 25.2509 30.6453 24.8901 30.7115C24.3962 30.8025 24.0321 31.1366 23.6047 31.35C23.5399 31.3831 23.5732 31.4691 23.4534 31.4856C23.515 31.0622 23.5316 30.6553 23.5665 30.25C23.6097 29.7472 23.6314 29.246 23.6513 28.7431C23.6762 28.1113 23.7162 27.4778 23.7211 26.8459C23.7328 25.1538 23.7245 23.4633 23.7328 21.7712C23.7328 21.5247 23.7211 21.2816 23.6962 21.0384C23.6912 20.9921 23.6679 20.9193 23.7544 20.9193C23.8143 20.9193 23.8076 20.9772 23.8209 21.0202C23.9722 21.5661 24.1302 22.1086 24.2765 22.6545C24.4777 23.4021 24.6989 24.1415 24.93 24.8809C25.2276 25.8353 25.5352 26.7864 25.8578 27.7325C26.0324 28.2436 26.217 28.7514 26.3882 29.2625C26.5512 29.7488 26.764 30.2186 27.0035 30.6718C27.1132 30.8802 26.9769 30.9679 26.8987 31.0936H26.9004ZM29.9815 29.1137C29.7454 29.1335 29.5226 29.2526 29.2931 29.3221C28.8026 29.4726 28.3836 29.7703 27.9695 30.0681C27.9379 30.0912 27.898 30.1276 27.8731 30.0945C27.8016 29.992 27.7833 30.0019 27.8016 30.1227C27.8149 30.207 27.7467 30.2781 27.7051 30.2781C27.6303 30.2781 27.6203 30.1855 27.607 30.116C27.5522 29.8117 27.5173 29.4974 27.4358 29.2046C27.2928 28.6869 27.1764 28.1626 27.0284 27.6481C26.8738 27.1139 26.7491 26.5697 26.5994 26.0338C26.5146 25.7311 26.3999 25.4383 26.3068 25.1389C26.2186 24.8527 26.1505 24.5583 26.059 24.2722C25.911 23.8057 25.7514 23.3409 25.5968 22.8761C25.3706 22.1996 25.1412 21.5247 24.9233 20.8449C24.8851 20.7258 24.7554 20.6216 24.8402 20.4496C26.7574 23.3674 28.6779 26.262 30.8777 28.9846C30.5668 29.0574 30.2758 29.0872 29.9798 29.112L29.9815 29.1137ZM31.2884 28.586C29.6173 25.655 27.6603 22.9787 25.7082 20.223C25.9476 20.2924 26.0607 20.438 26.187 20.5488C26.6177 20.9293 27.0351 21.3246 27.4624 21.71C27.9363 22.1384 28.4135 22.5635 28.894 22.982C29.1684 23.2218 29.4594 23.4402 29.7304 23.6833C29.9832 23.9116 30.2342 24.1448 30.492 24.3664C30.7331 24.5732 30.9908 24.7634 31.2385 24.9669C31.8288 25.4532 32.4224 25.9329 33.0493 26.3712C33.1275 26.4258 33.1956 26.5151 33.2954 26.578C32.2329 26.8277 31.6293 27.5489 31.2884 28.5877V28.586ZM35.5086 23.642C35.4154 23.642 35.3822 23.8256 35.2591 23.7296C35.2292 23.7065 35.1826 23.6651 35.1693 23.7081C35.0862 23.9777 34.8152 23.9976 34.6339 24.1316C34.0869 24.5418 33.8125 25.0843 33.7859 25.7675C33.7826 25.8733 33.8092 25.9825 33.766 26.085C33.7377 26.1529 33.8591 26.2471 33.746 26.2819C33.6662 26.3067 33.6363 26.1909 33.5947 26.1446C33.2488 25.7559 32.8614 25.4102 32.5106 25.0248C32.3127 24.8081 32.0749 24.6146 31.8471 24.4227C31.5229 24.1481 31.2119 23.8603 30.9077 23.5609C30.6167 23.2731 30.2708 23.0432 29.9798 22.757C29.6689 22.4527 29.323 22.1913 29.0121 21.8853C28.8242 21.7017 28.5947 21.5462 28.3885 21.3726C27.9795 21.0285 27.5937 20.6547 27.1714 20.3272C26.8771 20.0989 26.5944 19.8591 26.3267 19.601C26.2802 19.5564 26.1987 19.5729 26.1687 19.4902C26.3334 19.3827 26.4514 19.5183 26.5578 19.5729C26.9353 19.7664 27.331 19.9252 27.6985 20.1353C28.214 20.4281 28.766 20.6365 29.2948 20.8962C29.9316 21.2088 30.5934 21.4801 31.2485 21.7596C31.8754 22.0276 32.5039 22.3005 33.1374 22.5453C33.7743 22.7934 34.4078 23.068 35.0779 23.2284C35.2159 23.2615 35.314 23.3823 35.4587 23.4187C35.5385 23.4385 35.4986 23.5642 35.5086 23.6436V23.642ZM36.167 19.8227C36.0839 20.0179 35.9841 20.2048 35.896 20.3983C35.6383 20.9673 35.5052 21.5661 35.4969 22.1946C35.4936 22.3898 35.3922 22.4246 35.2142 22.3303C34.4859 21.9416 33.7593 21.5512 33.0161 21.1923C32.4158 20.9028 31.8139 20.6117 31.207 20.3404C30.8112 20.1634 30.4271 19.9534 30.0164 19.8028C29.6423 19.6656 29.2698 19.5001 28.9023 19.3298C28.3819 19.0883 27.8448 18.8865 27.3194 18.6582C27.1082 18.5656 26.9004 18.4366 26.6609 18.3952C26.9137 18.3042 27.1614 18.4151 27.3776 18.4796C27.5971 18.5474 27.8232 18.5656 28.0394 18.6003C28.2988 18.6433 28.5582 18.7012 28.8209 18.736C29.18 18.7839 29.5425 18.8468 29.8983 18.9245C30.1993 18.9907 30.5036 19.0271 30.8062 19.0717C31.0556 19.1098 31.2934 19.1892 31.5345 19.2206C31.6892 19.2421 31.8604 19.2438 32.025 19.2537C32.6918 19.295 33.3486 19.4241 34.0154 19.472C34.7104 19.5216 35.4088 19.5613 36.1038 19.6308C36.2817 19.649 36.1986 19.7516 36.1687 19.821L36.167 19.8227ZM36.0988 18.6847C35.7064 18.597 35.309 18.5358 34.9216 18.4349C34.589 18.3472 34.2266 18.3886 33.9173 18.2C33.8757 18.1752 33.8291 18.1587 33.8025 18.21C33.7676 18.2761 33.7094 18.2662 33.6662 18.253C33.1507 18.1008 32.612 18.0975 32.0866 18.0098C31.8122 17.9635 31.5362 17.8808 31.2502 17.9023C30.8012 17.9337 30.3589 17.8328 29.9166 17.7849C28.8591 17.6724 27.7949 17.6492 26.7358 17.5004C27.8132 17.373 28.8874 17.1993 29.9665 17.0984C31.0141 17.0008 32.0467 16.809 33.0842 16.6617C34.1534 16.5096 35.2242 16.3491 36.3 16.0563C36.009 17.0438 35.8827 17.9933 36.7274 18.7938C36.4879 18.8617 36.2934 18.726 36.0988 18.683V18.6847Z" fill="#F05A2C"/>
<path d="M39.466 16.584C39.4543 15.221 39.2315 13.9044 38.8424 12.6092C38.4783 11.3951 38.016 10.224 37.3908 9.12408C36.9469 8.345 36.478 7.58082 35.9076 6.88941C35.7014 6.63965 35.5069 6.37665 35.2891 6.13681C34.9532 5.7696 34.594 5.4239 34.2565 5.05835C33.9555 4.73415 33.5881 4.491 33.2721 4.18664C33.1158 4.03612 32.9013 3.94846 32.7367 3.80455C32.2645 3.39599 31.7075 3.11811 31.2036 2.75586C30.8578 2.5061 30.4404 2.35558 30.043 2.19017C29.9266 2.1422 29.8585 2.00657 29.7504 2.00987C29.5076 2.01484 29.3031 1.88251 29.1102 1.79153C28.4102 1.46403 27.6619 1.30689 26.932 1.09847C26.4431 0.957878 25.931 0.893369 25.4238 0.832168C25.1146 0.794124 24.7986 0.817281 24.4977 0.713074H22.2513C22.0866 0.757734 21.9237 0.815627 21.7508 0.802394C21.3683 0.774275 21.0042 0.949607 20.6201 0.903293C20.6051 0.901639 20.5885 0.903293 20.5768 0.909909C20.2892 1.06043 19.9649 1.08193 19.659 1.15471C19.1801 1.26885 18.7112 1.41771 18.2456 1.56658C17.7401 1.72868 17.243 1.92882 16.7624 2.16701C16.5762 2.25964 16.39 2.36219 16.2037 2.44159C15.7531 2.63181 15.3607 2.92458 14.935 3.15615C14.674 3.2984 14.4279 3.5002 14.1835 3.68546C14.0388 3.79463 13.8842 3.8856 13.7395 3.99477C13.5433 4.14364 13.367 4.31897 13.1775 4.48107C12.8948 4.72257 12.6072 4.95745 12.3511 5.23037C11.9903 5.61412 11.6195 5.98959 11.267 6.38492C11.0425 6.63634 10.8346 6.90761 10.6251 7.16564C10.4589 7.37075 10.3026 7.6139 10.1562 7.84878C9.7688 8.47072 9.34479 9.06949 9.04383 9.74105C8.81271 10.2555 8.54167 10.75 8.36209 11.2909C8.15259 11.9195 7.94308 12.5447 7.76848 13.1848C7.5041 14.1525 7.37939 15.1383 7.33949 16.1374C7.30124 17.1083 7.27963 18.0793 7.29626 19.0519C7.30124 19.3264 7.30956 19.6043 7.35778 19.8739C7.51075 20.7291 7.62715 21.5925 7.91481 22.4179C8.02455 22.7305 8.10769 23.0514 8.21244 23.3674C8.57327 24.4442 9.09538 25.4416 9.63245 26.4307C9.87023 26.8674 10.2011 27.2495 10.4755 27.6663C10.9294 28.3561 11.4731 28.9697 12.0352 29.5619C12.4342 29.982 12.8632 30.3774 13.3238 30.733C13.8276 31.1234 14.3265 31.5203 14.8669 31.8578C15.5636 32.2928 16.2636 32.7262 17.0252 33.0371C17.3095 33.1529 17.5872 33.2919 17.8715 33.3977C18.1425 33.4986 18.4252 33.5846 18.7062 33.6657C19.0803 33.7748 19.4528 33.8939 19.8336 33.9717C20.211 34.0494 20.5868 34.1437 20.9742 34.1884C21.3617 34.233 21.7541 34.3372 22.1415 34.3339C23.1791 34.324 24.22 34.4183 25.2576 34.2628C25.8478 34.1751 26.4431 34.1172 27.0168 33.9551C27.7434 33.75 28.4867 33.5896 29.1767 33.2538C29.5375 33.0785 29.9266 32.9627 30.2858 32.7791C30.9708 32.4284 31.6443 32.0596 32.2728 31.608C32.4407 31.4873 32.6286 31.3897 32.7733 31.2458C32.9196 31.1002 33.1125 31.0522 33.2638 30.8967C33.6845 30.4634 34.19 30.1243 34.604 29.6727C34.8617 29.3932 35.191 29.1583 35.4005 28.8473C35.6649 28.4553 36.034 28.1609 36.2618 27.7375C36.4547 27.3785 36.7357 27.0742 36.9435 26.7218C37.1298 26.4076 37.3542 26.1148 37.5189 25.7889C37.7666 25.2993 37.9645 24.7849 38.2056 24.292C38.3419 24.0125 38.3968 23.6998 38.5764 23.4335C38.6479 23.3277 38.6296 23.1457 38.6811 23.0002C38.7876 22.7041 38.8807 22.4014 38.9572 22.0954C39.0586 21.6934 39.1367 21.2865 39.2282 20.8829C39.3928 20.1634 39.4743 19.4323 39.4942 18.6962C39.5142 17.9933 39.471 17.2903 39.466 16.5873V16.584ZM38.9488 18.898C38.9256 19.5729 38.8275 20.2445 38.6712 20.9028C38.5963 21.2171 38.5481 21.5396 38.46 21.8506C38.2388 22.6263 38.011 23.4005 37.6785 24.1349C37.4474 24.646 37.1979 25.1521 36.9336 25.6467C36.8105 25.8783 36.6725 26.1032 36.5096 26.3166C36.3499 26.5267 36.2418 26.7864 36.0905 27.0113C35.7879 27.4579 35.4653 27.888 35.0962 28.28C34.8767 28.5132 34.6971 28.7861 34.471 29.0111C34.1384 29.3419 33.7809 29.6496 33.4351 29.9655C32.9163 30.4386 32.3742 30.8686 31.7906 31.2524C31.0307 31.7519 30.2492 32.2117 29.4145 32.5641C28.8691 32.794 28.3104 32.9941 27.7417 33.1661C27.1099 33.3597 26.4681 33.4837 25.8229 33.6128C24.5808 33.8609 23.3304 33.7964 22.0817 33.7798C21.7258 33.7748 21.37 33.6657 21.0141 33.6161C20.4521 33.5383 19.9051 33.4093 19.358 33.2588C18.8658 33.1231 18.3853 32.961 17.9081 32.7791C17.5406 32.6385 17.1748 32.4863 16.8289 32.3011C16.3767 32.0596 15.8978 31.8677 15.4688 31.5799C15.1046 31.3351 14.7172 31.1184 14.3797 30.8405C14.0388 30.5593 13.6796 30.3029 13.3471 30.0085C12.8832 29.5966 12.4442 29.1567 12.0202 28.7067C11.6228 28.2833 11.2453 27.835 10.9145 27.3504C10.7349 27.0874 10.5387 26.836 10.3774 26.5597C9.97499 25.8683 9.54932 25.1918 9.23339 24.4524C9.07376 24.0786 8.9025 23.7114 8.79442 23.3128C8.71128 23.0101 8.57659 22.7223 8.48348 22.4196C8.30556 21.839 8.13928 21.2551 8.04284 20.658C7.98631 20.304 7.91148 19.9517 7.87324 19.5928C7.80839 19.0039 7.84497 18.4167 7.83666 17.8279C7.83001 17.2936 7.82668 16.7593 7.87823 16.2267C7.94141 15.5783 7.93476 14.9266 8.07942 14.2798C8.18251 13.8217 8.27064 13.3552 8.39868 12.9053C8.48015 12.6175 8.53336 12.3148 8.65973 12.0435C8.96568 11.3902 9.15524 10.6855 9.5011 10.052C9.70063 9.68646 9.8852 9.3143 10.123 8.97025C10.2244 8.82469 10.2843 8.64605 10.389 8.49718C10.8064 7.90833 11.2088 7.3112 11.6943 6.77363C11.8506 6.59995 11.9836 6.39484 12.1532 6.23109C12.4392 5.95486 12.7119 5.66539 13.0096 5.39909C13.5084 4.95414 14.0022 4.50423 14.5476 4.11717C15.1279 3.70531 15.7299 3.33314 16.3617 3.00398C16.7674 2.79225 17.1848 2.61858 17.5971 2.42836C17.9097 2.28445 18.2257 2.13889 18.5765 2.07604C18.8808 2.02145 19.1685 1.86431 19.4694 1.78326C19.8086 1.69064 20.1528 1.60959 20.4987 1.53846C21.0823 1.41771 21.6726 1.36809 22.2596 1.28869C22.627 1.23907 23.0062 1.27877 23.4485 1.27877C24.0254 1.1878 24.6656 1.30689 25.2991 1.37801C25.8561 1.44087 26.4165 1.55004 26.9669 1.69725C27.4358 1.82131 27.8947 1.98175 28.362 2.10746C28.6729 2.19182 28.9755 2.32746 29.2748 2.46309C29.6656 2.63842 30.0547 2.81707 30.4321 3.01555C31.0906 3.36126 31.7208 3.75493 32.3227 4.19491C32.8282 4.56543 33.2838 4.99384 33.7593 5.40074C34.1517 5.73817 34.5076 6.11199 34.8484 6.49078C35.1993 6.8828 35.5269 7.30624 35.8444 7.73299C36.4214 8.51041 36.9119 9.3358 37.336 10.2042C37.5687 10.6806 37.7932 11.1603 37.9628 11.6664C38.1258 12.156 38.3103 12.639 38.4467 13.1352C38.5697 13.5851 38.6296 14.0516 38.7343 14.5081C38.8773 15.1334 38.8973 15.7669 38.9289 16.4053C38.9705 17.239 38.9804 18.0727 38.9522 18.9047L38.9488 18.898Z" fill="#F05A2C"/>
</g>
<defs>
<clipPath id="clip0_5_2062">
<rect width="47" height="46" fill="white" transform="translate(0 0.711426)"/>
</clipPath>
</defs>
</svg>
