<?xml version="1.0" encoding="utf-8"?>
<!-- Generator: Adobe Illustrator 27.4.0, SVG Export Plug-In . SVG Version: 6.00 Build 0)  -->
<svg version="1.1" id="Layer_1" xmlns="http://www.w3.org/2000/svg" xmlns:xlink="http://www.w3.org/1999/xlink" x="0px" y="0px"
	 viewBox="0 0 256 256" enable-background="new 0 0 256 256" xml:space="preserve">
<rect fill="#FFFFFF" width="256" height="256"/>
<g>
	<path fill="#0056D2" d="M128,237.8L128,237.8c-60.6,0-109.8-49.2-109.8-109.8l0,0C18.2,67.4,67.4,18.2,128,18.2l0,0
		c60.6,0,109.8,49.2,109.8,109.8l0,0C237.8,188.6,188.6,237.8,128,237.8z"/>
	<path fill="#FFFFFF" d="M64.7,128.1c0-36.8,30.3-66.3,68.3-66.3c24.4,0,45.6,12.1,57.8,30.3l-28.5,16.4
		c-6.6-9.1-17.1-15.1-29.3-15.1c-19.6,0-35.4,16.2-35.4,34.6s16.1,34.5,35.4,34.5c12.7,0,23.9-6.5,30-16.4l28.3,16.7
		c-12,18.9-33.6,31.5-58.4,31.5C94.9,194.4,64.7,164.1,64.7,128.1L64.7,128.1z"/>
</g>
</svg>
